<?xml version="1.0" standalone="no"?>
<!DOCTYPE svg PUBLIC "-//W3C//DTD SVG 1.1//EN" "http://www.w3.org/Graphics/SVG/1.1/DTD/svg11.dtd" >
<svg xmlns="http://www.w3.org/2000/svg">
<metadata>
This is a custom SVG webfont generated by Font Squirrel.
Copyright   : By Jakob Fischer aka PizzaDude  Distribute freely
</metadata>
<defs>
<font id="JustAnotherFontRegular" horiz-adv-x="763" >
<font-face units-per-em="1000" ascent="800" descent="-200" />
<missing-glyph horiz-adv-x="500" />
<glyph unicode=" "  horiz-adv-x="500" />
<glyph unicode="&#x09;" horiz-adv-x="500" />
<glyph unicode="&#xa0;" horiz-adv-x="500" />
<glyph unicode="A" horiz-adv-x="795" d="M491 100q1 22 -18 60q-64 1 -125 -21q-79 -31 -94 -91q60 -32 135 -40q26 -1 51 -1t51 -1v94zM729 -51q0 -32 -6 -63q-11 -46 -30 -50q-11 -1 -30 -4t-47 -10q-55 -13 -64 -12h-51q-2 16 -6.5 36.5t-9.5 46.5q4 6 -14 6q7 0 -80 -32q-86 -33 -157 -33q-107 0 -163 68 q-46 55 -46 136q0 75 67 146q55 61 132 96q17 8 51.5 15t87.5 14q104 13 137 29q-21 35 -63 46q-21 6 -72 6q-74 0 -237 -48h-29v170l105 20l128 22q137 25 156 25q125 0 186 -127q23 -48 34.5 -104.5t12.5 -125.5q1 -61 2 -111.5t3 -92.5q3 -77 3 -69zM132 275h39 q-52 -31 -93 -77q-38 -40 -55.5 -79.5t-17.5 -80.5q0 -89 51 -149q8 -11 18 -19.5t21 -16.5l26 -26q60 -60 163 -60q77 0 163 34l16 7l16 6q1 -6 1.5 -12t2.5 -12h6l47 -47h68q16 0 66 12q28 7 47 10t31 4q30 7 42 63q6 31 6 67q0 9 -0.5 14.5t-0.5 12.5q0 6 -0.5 16 t-1.5 27q-2 42 -3 92t-2 111q-1 140 -49 238h-1q-11 24 -24 42.5t-28 34.5l-26 26q-65 86 -172 86q-23 0 -160 -25l-136 -24l-113 -21v-207h6zM440 27h-25q-12 0 -24 1q-22 1 -47 8q20 20 60 37l33 10q17 5 34 7v-64h-6q-7 0 -13 0.5t-12 0.5z" />
<glyph unicode="B" horiz-adv-x="790" d="M496 198q0 53 -24 112q-35 83 -98 83q-114 0 -114 -170q0 -5 1.5 -20t3.5 -41q4 -57 6 -81q55 -45 70 -45q155 0 155 162zM707 174q0 -133 -67 -218q-77 -98 -217 -98q-64 0 -127 18q-5 1 -12 5.5t-14 10t-13 9.5l-9 6q-24 -14 -30 -42q-7 -45 -9 -47q-29 7 -70 15 l-95 20q-10 75 -15 135.5t-5 108.5l-8 439q0 70 18 247l51 -2l51 -2q31 -1 55.5 0.5t42.5 3.5v-32q0 -20 -1 -49t-1 -51v-36q0 -91 12 -91q10 0 35 14q18 11 28 16.5t12 6.5q27 11 92 11q153 0 234 -148q62 -113 62 -250zM300 652q1 29 1 59v41l-47 47v6q-23 -2 -48.5 -4 t-48.5 -2h-21q-12 0 -23.5 0.5t-23.5 1.5h-3h-16q-9 0 -18 1q-11 0 -20.5 0.5t-15.5 1.5q-10 -99 -15 -165.5t-5 -102.5l8 -439q0 -48 5.5 -113t16.5 -148q4 0 7 -1l46 -46l40 -9l38 -8l58 -12q29 -6 49 -11q5 5 10.5 21t10.5 41q3 16 13 26l4 -4q8 -6 18 -12.5t17 -9.5 q72 -20 136 -20q148 0 229 105l1 -1q71 89 71 229q0 139 -64 258q-25 47 -59 81l-21 21q-84 108 -219 108q-68 0 -100 -13q-1 -1 -2 -1l-10 -5v33q0 20 1 46zM476 198q0 -142 -135 -142q-3 0 -6 2q-1 11 -1 24q0 14 -2 31q-1 6 -1 12t-1 11q-3 31 -3 37q0 153 97 153 q4 0 8.5 -1t9.5 -2q3 -5 5.5 -10.5t5.5 -11.5h1q11 -28 16.5 -53.5t5.5 -49.5z" />
<glyph unicode="C" horiz-adv-x="743" d="M643 -48q0 -72 -121 -109q-84 -26 -153 -26q-72 0 -175 60q-118 67 -136 148q-34 148 -34 156t9 52q10 46 12 63q12 121 117 195q91 63 195 63q10 0 35 -3l68 -8q97 -12 149 -24l15 -9l19 -13l-15 -92l-11 -73q-20 8 -44.5 15.5t-53.5 15.5q-64 16 -98 16q-75 0 -117 -61 q-34 -49 -34 -109q0 -70 39 -125q45 -62 112 -62q71 0 155 72q67 -110 67 -142zM337 159q0 55 31 99q37 54 103 54q32 0 94 -15q25 -7 53 -16.5t63 -23.5q2 16 5.5 39.5l7.5 50.5l9 56l9 53l-48 48q0 1 0.5 1.5t0.5 2.5l-17 10q-7 4 -8 5q-7 5 -12.5 8.5t-13.5 7.5 q-25 5 -63 11t-89 13l-68 8q-26 3 -37 3q-110 0 -207 -67q-111 -78 -125 -209q-1 -11 -12 -61q-9 -42 -9 -56q0 -13 34 -161q13 -64 88 -122l19 -19q34 -34 89 -66l1 -1q107 -62 184 -62q72 0 158 27q133 40 133 125q0 36 -80 168l-40 40l-9 15q-97 -83 -160 -83 q-33 0 -59 17q-14 23 -19.5 47.5t-5.5 52.5z" />
<glyph unicode="D" horiz-adv-x="793" d="M479 109q1 9 -2 37l-8 75q-5 51 -11 91l-11 72h-90q-55 0 -86 -90q-23 -66 -23 -114q0 -66 46 -115t110 -49q4 0 12.5 1t22.5 3l24 4q10 1 16 1v84zM728 -133q-15 -7 -91 -20q-67 -12 -104 -37h-28q-15 43 -15 80l-46 -11q-25 -6 -57 -12q-56 -10 -75 -10q-134 0 -218 98 q-78 90 -78 217q0 175 90 282q94 114 262 114q52 0 106 -17q9 37 9 93v94q0 27 3 53q35 -5 82 -13l108 -18q13 7 35 7v-524q1 -6 9 -62q4 -27 6 -43t2 -21v-250zM147 -123q87 -87 215 -87q22 0 78 10q12 2 23 5t21 5q2 -5 3.5 -10t3.5 -10h5l47 -47h46q38 27 101 37 q40 7 63.5 12.5t31.5 8.5l10 16v250q0 9 -2 22t-5 36q-1 2 -1 8q-4 27 -6 43t-3 20v538l-47 47v6q-41 0 -59 -6q-5 0 -7 1q-14 2 -26.5 4.5t-24.5 4.5l-25 4l-27 4q-26 5 -51.5 9t-42.5 6q-2 -21 -3.5 -40t-1.5 -36v-94q0 -35 -6 -68q-47 12 -89 12q-177 0 -277 -121 q-95 -113 -95 -295q0 -135 83 -230q11 -14 23.5 -25t26.5 -22zM436 40l-22 -3q-7 -1 -10 -1q-38 0 -70 20q-19 34 -19 74q0 44 22 108q28 79 70 79h30l6 -48l6 -50q1 -5 1 -10t1 -10q4 -34 6 -56t2 -30v-70q-5 -1 -11 -1.5t-12 -1.5z" />
<glyph unicode="E" horiz-adv-x="793" d="M511 356q1 43 -49 69q-39 21 -80 21q-7 0 -17.5 -3.5t-22 -8.5t-22 -11.5t-17.5 -12.5q-23 -19 -43 -42t-37 -51q-6 -21 13 -21q8 0 42.5 1t96.5 3q43 1 76.5 0.5t59.5 -2.5v58zM701 1q0 -47 -12 -71l-49 -33l-27 -17q-24 -14 -46.5 -23.5t-42.5 -14.5q-79 -17 -138 -17 q-9 0 -49 9q-22 5 -36.5 7.5t-21.5 3.5q-119 14 -197 123q-66 91 -66 186q0 8 6 35q7 27 7 40q0 151 125 249q112 86 244 86q20 0 79 -17q64 -20 79 -35q8 -8 17 -16l18 -16q13 -12 21.5 -23t13.5 -21q22 -45 45 -115q22 -66 22 -84t-10 -27l-426 -24q-5 -5 -5 -20 q0 -22 34 -83q40 -70 73 -70h73q94 0 258 54q11 -19 11 -66zM351 41q-32 55 -32 75v3l421 24q20 17 20 44q0 9 -5.5 31.5t-17.5 57.5q-12 36 -23.5 65t-22.5 52q-5 11 -12.5 21.5t-18.5 21.5l-28 28q-11 15 -27 30q-2 2 -3.5 2.5t-3.5 2.5l-6 6q-6 5 -11 10l-11 11 q-19 19 -87 40q-60 18 -85 18q-140 0 -256 -91q-133 -103 -133 -264q0 -8 -7 -35q-6 -27 -6 -40q0 -101 70 -198q34 -48 73 -77l19 -19q71 -72 169 -82q5 -1 19 -3.5t37 -7.5q40 -9 53 -9q33 0 68.5 4.5t73.5 12.5q44 11 94 40l29 19l51 34q16 31 16 83t-20 86l-42 41 q-2 3 -3 6.5t-3 6.5q-175 -58 -268 -58h-73h-4q-3 4 -4 8zM433 321h-27q-8 0 -16 -0.5t-16 -0.5q-11 -1 -21.5 -1.5t-20.5 -0.5q8 8 16 15l16 14q6 5 15.5 11t19 10.5t18.5 7.5t15 3q31 0 58 -13q1 -2 1 -8v-39q-15 1 -29.5 1.5t-28.5 0.5z" />
<glyph unicode="F" horiz-adv-x="614" d="M576 774q0 -12 -1 -31.5t-3 -47.5q-3 -56 -3 -80l-20 -18q-17 10 -45 21q-30 11 -45 11q-32 0 -61 -32q-24 -29 -24 -53q0 -12 3.5 -16t3.5 -6q43 -15 79 -15h25q8 -1 14 -1h12q8 -44 12.5 -75.5t4.5 -51.5q-17 -24 -51 -24h-28q-38 0 -59 -24v-492q-156 -6 -234 0v498 q-7 1 -38 1h-88q5 84 8 130t3 54q31 9 107 9q27 175 100 224q52 37 203 37q7 0 54 -9q48 -9 71 -9zM577 794q-20 0 -68 9q-47 9 -58 9q-157 0 -222 -46q-69 -53 -98 -215q-35 -1 -62 -4.5t-48 -9.5q0 -8 -2 -52.5t-7 -110.5q-1 -5 -1 -13t-1 -16q-1 -7 -1.5 -14.5 t-0.5 -12.5h6l47 -47h75v-451h6l47 -47q20 -2 52.5 -3t61.5 -1t72 1t82 3v501q16 14 42 14h28q44 0 68 35q0 25 -5 62t-15 88l-46 45q0 2 -0.5 4t-0.5 4h-22q-11 0 -19 1h-27h-7q2 3 8 9q24 26 48 26q11 0 39 -10q15 -5 28 -11.5t25 -14.5l35 31q0 13 0.5 36t2.5 51t3 47.5 t1 32.5l-47 47v4z" />
<glyph unicode="G" horiz-adv-x="668" d="M397 254v12l-2 33q-1 23 -1 42v36q-1 24 -0.5 43.5t2.5 34.5h-61q-48 0 -91 -61q-39 -56 -39 -104q0 -41 42 -71q37 -28 77 -28q73 0 73 63zM616 290q0 -193 -44 -295q-71 -168 -264 -168q-6 0 -28.5 4t-60.5 12q-42 8 -76 16l-63 15q1 13 1 47v90q176 -31 184 -31 q29 0 73 15q53 17 53 41v63q-92 -27 -133 -27q-102 0 -170 67q-68 68 -68 164q0 61 21 118q24 62 66 98q30 25 96 48q61 21 95 21q63 0 116 -40q3 3 6 9.5t6 14.5l6 14q3 8 6 12q9 3 26 3t46 -3.5t71 -10.5q16 -30 19 -55q8 -63 12 -122.5t4 -119.5zM126 77 q36 -36 79.5 -53.5t94.5 -18.5q-11 -3 -19.5 -4t-15.5 -1q-1 0 -50 8l-154 28v-57q0 -29 -0.5 -53.5t-1 -43t-0.5 -24.5q1 0 7 -2l46 -46l70 -17q41 -9 83 -17q38 -8 61.5 -12t31.5 -4q205 0 280 178q45 102 45 302q0 60 -4 120.5t-12 123.5q-3 26 -25 69l-43 42 q-1 3 -2 5.5t-3 5.5q-90 15 -130 15q-19 0 -37 -6q-13 -16 -16 -22t-3 -8v-4l-2 -4q-52 31 -108 31q-39 0 -101 -22q-68 -23 -103 -52q-47 -39 -72 -106q-22 -59 -22 -125q0 -104 74 -178l14 -14q7 -6 15 -11zM377 254q0 -43 -53 -43q-28 0 -50 14q-2 8 -2 15q0 43 36 94 q34 46 66 52v-9v-37q0 -19 1 -42q0 -8 0.5 -13.5t0.5 -10.5q0 -6 0.5 -10.5t0.5 -6.5v-3z" />
<glyph unicode="H" d="M710 -98q0 -23 -21 -50q-9 -1 -82 -21q-26 -7 -42 -10.5t-22 -2.5h-42v203q-1 67 -4 114.5t-9 76.5q-27 136 -113 136q-109 0 -109 -132v-259q0 -44 -26 -107q-23 2 -199 0v268q-2 51 15 170l9 461q11 11 44 11q8 0 40 12t42 11h90q18 -46 17 -137l-1 -108q-1 -36 -1 -37 q19 8 45 17.5t58 19.5q68 20 81 20q104 0 166 -104q48 -83 63 -216q-6 -6 -5 -51q0 -42 6 -285zM365 596v13q0 44 -5.5 79t-16.5 62l-45 44l-3 9h-106q-16 0 -47 -12q-30 -11 -33 -11q-41 0 -64 -23l-9 -467q-15 -108 -15 -163v-297h6l47 -47q44 0 87 0.5t68 0.5t46 -0.5 t27 -0.5q31 76 31 124v259q0 115 92 115q5 0 10 -1l10 -2q7 -14 12.5 -31.5t10.5 -39.5q11 -56 13 -186v-223h6l47 -47h61q13 0 66 14q34 9 54.5 14t31.5 7q30 39 30 66q-6 243 -6 285v14q0 25 6 31q-17 147 -66 231q-10 16 -20.5 30t-21.5 25l-19 18q-63 92 -170 92 q-18 0 -87 -21q-8 -2 -15 -4.5t-14 -4.5q0 11 0.5 22.5t0.5 25.5z" />
<glyph unicode="I" horiz-adv-x="333" d="M285 -110q-22 -8 -72.5 -22t-131.5 -34q1 37 1.5 74t1.5 75q1 90 -3 154q-15 223 -33 360q27 7 99 15q39 5 67.5 9t45.5 8zM277 571q-20 3 -55 3q-12 0 -27 -0.5t-33 -1.5q-17 -1 -27 -1.5t-12 -0.5q-83 0 -83 36v137q39 -4 67.5 -5.5t46.5 -1.5q66 0 105 16l18 -18v-163 zM344 691l-47 47v4l-34 34q-50 -20 -109 -20q-34 0 -134 9v-159q0 -30 28 -43l37 -37q0 -1 1 -2q-17 -2 -31.5 -5.5t-28.5 -7.5q9 -69 18 -166t17 -209q3 -48 3 -110v-43q0 -18 -0.5 -39.5t-0.5 -43.5q-1 -23 -1 -47q0 -25 -1 -44l2 1q1 0 3 1l48 -48l153 39q57 15 74 22 l11 17l-26 659l-5 4h3l20 17v170z" />
<glyph unicode="J" horiz-adv-x="405" d="M357 141v-88q0 -31 -1 -38q-6 -80 -34 -114q-28 -36 -80 -58q-54 -23 -93 -23q-6 0 -129 41v33q-2 12 18 51q20 38 33 38q8 0 18 -3.5t18 -3.5q91 0 91 141q0 8 -0.5 18.5t-1.5 21.5t-1 17v9l-13 261q-4 2 -7 2q-6 0 -21.5 -4.5t-21.5 -4.5h-40v122q11 2 36 5.5t63 10.5 q32 5 50 7.5t23 2.5h60zM176 629q-8 24 -8 46q0 7 1 18.5t2.5 24t3 23.5t1.5 19q66 20 123 20q9 0 16 -6t12 -15t7.5 -19.5t2.5 -19.5v-91h-161zM125 370h40l10 -188v-9q0 -6 1 -17v-9q1 -8 1.5 -15.5t0.5 -14.5q0 -121 -71 -121q-4 0 -12 2q-2 1 -3 1t-3 1q-9 3 -18 3 q-25 0 -51 -49q-10 -20 -15 -34t-5 -24v-49l7 -2l46 -46l105 -34q36 -12 41 -12q46 0 100 24q55 25 85 64l1 -1q32 38 38 123v1q1 8 1 39v88v1l-34 460l-10 10h24v110q0 15 -7 32t-18 29l-36 35q-8 14 -19 23t-25 9q-56 0 -143 -26q0 -16 -1 -29.5t-3 -25.5t-3 -23.5 t-1 -20.5q0 -26 14 -66h5l14 -15q-37 -7 -67.5 -11t-41.5 -6v-160h6z" />
<glyph unicode="K" horiz-adv-x="805" d="M779 -105q-34 -30 -98 -46q-29 -5 -57 -11t-57 -11q0 24 -4 33l-57 69l-56 68q-86 93 -149 107q-9 -54 -15 -134q-9 -132 -9 -135q-107 11 -235 0v394q-1 5 0.5 23t3.5 47q4 38 5.5 61.5t2.5 33.5q2 48 3 95.5t3 95.5q3 101 25 170q2 1 27 4t73 10q67 9 92 22l-7 -322 q8 -26 8 -56q0 -10 -1 -31t-1 -31q0 -45 15 -76l236 271q8 -1 58 -1h143q9 -14 9 -21l-188 -290q11 -26 27.5 -59t39.5 -73q25 -21 69 -66l39 -58zM618 183l186 287q0 16 -17 42l-40 40l-4 6q-2 3 -4 7h-150q-53 0 -70 2l-174 -200q-1 15 -3 28.5t-5 25.5l8 348l-47 47v8 q-28 -14 -56.5 -22t-58.5 -13q-12 -2 -23 -3t-20 -3q-8 -2 -15 -2.5t-13 -1.5q-16 -2 -25 -3.5t-19 -6.5q-25 -78 -28 -183l-2 -64l-2 -64q-1 -16 -1 -32t-1 -32v-4q0 -2 -0.5 -2.5t-0.5 -1.5q-1 -12 -2.5 -33t-4.5 -52q0 -2 -0.5 -3t-0.5 -3v-5q-3 -38 -3 -54v-422 q2 0 2.5 0.5t2.5 0.5l48 -48q16 1 34 2l37 2q19 1 36.5 1.5t32.5 0.5q26 0 58.5 -2t70.5 -5q0 2 2 44.5t7 108.5q4 64 12 112q27 -11 57 -34q4 -4 7.5 -8t8.5 -9l53 -65l54 -64q1 -5 1.5 -17.5t0.5 -29.5q1 1 2 0.5t3 0.5l48 -48q7 1 17 3l22 4q11 2 21.5 3.5t17.5 3.5 q14 3 28.5 5.5t28.5 5.5q34 8 60.5 21t44.5 29l3 23l-57 84l-39 59l-15 15l-14 15l-12 11l-2 4l-2 4l-34 34q-16 28 -28 53z" />
<glyph unicode="L" horiz-adv-x="311" d="M257 -143q-60 -4 -185 -24l-9 627q-16 92 -16 149q0 3 1 18l3 43l4 48q1 20 1 34q32 8 82 15.5t119 15.5v-926zM105 -237q146 23 203 27l16 17v945l-47 47v6q-80 -8 -139.5 -17.5t-101.5 -20.5q0 -23 -2 -46l-3 -50q-2 -28 -3 -43.5t-1 -18.5q0 -62 16 -154l9 -645 q1 1 2 0.5t3 0.5z" />
<glyph unicode="M" horiz-adv-x="1224" d="M1173 -123q-4 -1 -22 -16q-13 -10 -23 -10q-5 0 -22 1t-46 3t-45 3t-20 1h-61q-3 94 -3 157q0 22 0.5 42.5t1 35.5t1.5 24v8q0 219 -95 219q-29 0 -65 -30t-36 -48q0 -4 -0.5 -12t-0.5 -18l-1 -19q-1 -10 -1 -17l-1 -357h-246v232q-1 29 -8 78.5t-20 119.5q-3 14 -22 36 q-23 27 -41 27q-81 0 -118 -60q-27 -44 -32 -127q-2 -29 -3 -57l-2 -58q-1 -12 6 -46q8 -37 8 -42v-113l-58 2l-58 2q-62 2 -97 -3q-4 94 -2 172.5t9 143.5l10 376q25 -16 72 -16q13 0 123 15q2 -39 -7 -60q4 -4 6.5 -10.5t6.5 -10.5l111 63q69 36 136 36q61 0 93 -29 q32 -28 73 -120q109 94 144 117q64 40 141 40q79 0 114 -29q38 -34 56 -106q8 -32 15.5 -76.5t15.5 -101.5q7 -49 10 -79t3 -41v-242zM1134 486l-21 21q-11 17 -27 31q-40 34 -127 34q-84 0 -152 -43q-14 -8 -41 -31l-71 -59q-12 18 -25 32l-31 31l-13 15q-6 8 -12 13 q-37 34 -106 34q-71 0 -145 -38l-46 -26l-42 43v6q-131 -18 -143 -18q-42 0 -91 32l-11 -410q-9 -87 -9 -202q0 -28 0.5 -67.5t2.5 -70.5q2 0 2.5 0.5t2.5 0.5l48 -48q22 2 43 3.5t41 1.5h28q14 -1 29 -1t29 -1t37.5 -1.5t38.5 -0.5v130q0 7 -2 18t-6 28q-6 28 -6 37v5l2 57 q1 28 3 57q2 39 9 69t20 50q28 49 97 52q13 -70 20 -118.5t8 -75.5v-252h6l47 -47h280l1 374q0 8 0.5 18t1.5 21q1 8 1 15v12q0 9 30 35q32 26 54 26h5q20 -52 20 -155h6l18 -18q-5 -8 -9 -18q-7 -14 -12.5 -32.5t-5.5 -38.5q0 -32 1 -80.5t3 -96.5h6l47 -47h77q4 0 19 -1 l45 -3q29 -2 46.5 -3t22.5 -1q15 0 33 14q7 5 11 8.5t6 4.5l12 16v242q0 12 -3 42.5t-10 79.5q-13 107 -32 180h1q-18 69 -54 107l-3 2q-2 2 -2.5 3t-2.5 3z" />
<glyph unicode="N" horiz-adv-x="798" d="M770 -124q-16 -2 -43.5 -9t-67.5 -19q-72 -22 -82 -22h-40q-9 0 -9 11v5l2 11q2 11 0 16q-8 4 -20 17q-4 34 -8 85l-9 120q-1 61 -2.5 98t-4.5 50q-20 86 -97 86q-33 0 -39 -3l-36 -18q-13 -7 -19 -11q-30 -21 -39 -48q-5 -15 -7 -134v-26q0 -11 -1 -19q-1 -17 0 -41.5 t5 -56.5q9 -68 9 -72v-61q-17 1 -44 -1t-64 -7q-30 -5 -60 -9l-61 -8v109q0 8 6 173q3 90 4.5 144.5t2.5 75.5q1 63 0 105.5t-5 67.5q12 7 12 16q0 -13 29 -13q8 0 62 17q29 10 50 15.5t34 7.5q-2 -23 0 -45t7 -44q140 95 244 109q3 0 10 2.5t15.5 5t16 4.5t12.5 2 q24 0 73 -28q45 -26 54 -39q24 -36 47 -108q14 -46 26.5 -111t22.5 -152q0 -3 2.5 -10t5 -15.5t4.5 -17t2 -14.5v-191zM66 -259l71 9q40 5 70 10t53 6.5t40 1.5h29v78q0 6 -9 74q-3 25 -4 44.5t-1 34.5v15q1 8 1 20v27q1 57 2 89t4 39q7 22 33 40h-1q6 4 19 11t34 17 q1 1 32 1q5 0 10 -0.5t10 -1.5q2 -5 3.5 -10.5t3.5 -11.5q3 -13 4.5 -49t2.5 -95q5 -69 9.5 -124t8.5 -89l9 -9q5 -5 10 -9v-1q-1 -4 -1 -8v-8q0 -2 -0.5 -2.5t-0.5 -1.5v-1q0 -24 19 -30l41 -41q6 -7 19 -7h40q5 0 27 5.5t60 17.5q76 22 108 27l15 17v191q0 8 -4 21l-7 25 q-3 7 -3 13q-10 87 -22.5 152.5t-27.5 113.5q-24 74 -49 112q-2 3 -7 8l-36 35q-2 2 -2.5 4.5t-2.5 4.5q-12 19 -61 46q-51 30 -82 30q-8 0 -17.5 -2.5t-18.5 -5.5q-2 -1 -3 -1t-3 -1t-3 -1t-3 -1l-8 -2q-81 -11 -181 -68l-46 47q0 4 1 6q-22 -4 -51 -11t-62 -18l-6 -2 l-6 -2q-39 -12 -44 -12q-12 0 -15 -4h-31v-1q-2 0 -6 -2.5t-11 -6.5q5 -27 6 -58.5t1 -71.5v-52v-15q0 -8 -1 -19q0 -5 -0.5 -9.5t-0.5 -9.5q0 -14 -0.5 -30t-1.5 -35q-1 -42 -3 -101q-6 -165 -6 -174v-131q1 0 2 0.5t3 0.5z" />
<glyph unicode="O" d="M504 190q0 111 -51 143q-25 16 -65 29q-41 15 -55 15q-49 0 -85 -77q-28 -57 -28 -94q0 -54 36 -115q47 -80 118 -80q64 0 100 62q30 51 30 117zM715 162q0 -47 -20 -98q-15 -38 -56 -107q-39 -65 -151 -102q-89 -30 -163 -30q-27 0 -49.5 2.5t-42.5 7.5t-39 13.5 t-40 20.5q-54 33 -70 64q-11 23 -23 56t-24 78q-21 78 -21 99q0 48 19 130q23 102 50 121l63 46l62 47q67 46 131 46q181 0 285 -131q89 -113 89 -263zM142 -155q11 -11 23.5 -21t29.5 -20q21 -12 41 -21t41 -14.5t45 -8t53 -2.5q79 0 168 31q119 40 161 109q40 65 57 110 q21 51 21 104q0 157 -93 274q-12 16 -29 33l-19 19q-110 138 -300 138q-71 0 -143 -50l-62 -47l-63 -46q-34 -24 -58 -132q-19 -82 -19 -135q0 -23 22 -104q13 -47 25 -81t23 -57q16 -32 57 -60zM484 190q0 -59 -28 -106q-32 -53 -82 -53q-28 0 -52 15q0 3 -1 4 q-34 56 -34 106q0 16 6 38t20 49q32 67 70 67q9 0 49 -14q11 -5 20.5 -8t17.5 -6q14 -34 14 -92z" />
<glyph unicode="P" horiz-adv-x="815" d="M500 411q0 69 -22 116q-33 76 -113 76q-10 0 -41 -9q-16 -4 -26.5 -6t-17.5 -2q-10 -26 -10 -77l4 -31l10 -94q14 -125 12 -173q116 12 160 54q44 44 44 146zM762 472q0 -118 -32 -184q-34 -69 -141 -157q-12 -11 -51 -18q-53 -11 -57 -13q-77 -26 -120 -29 q-19 -1 -38 -1.5t-38 -1.5q-12 -21 -12 -41q0 -9 3 -19l3 -10q0 -4 -9 -62q-9 -59 -9 -93h-108q-56 0 -119 -1v891q8 -1 15 -1.5t15 -0.5q37 0 87 18q21 8 42 17t42 17l7 -42q5 -24 10 -56q46 23 75.5 36.5t42.5 18.5q67 27 114 27q73 0 162 -63q100 -71 113 -153 q3 -18 3 -79zM298 758l-47 46v9l-15 -6l-20 -9l-17 -7l-14 -6q-2 -1 -5 -2t-5 -2q-13 -6 -31 -13q-49 -17 -80 -17q-8 0 -21.5 1t-28.5 3v-933h6l47 -47q31 0 66 0.5t69 0.5h67h59q0 48 9 107q9 58 9 68q-5 13 -5.5 16t-0.5 10q0 11 5 24h14q7 0 15 1q9 0 18.5 0.5t19.5 1.5 q23 2 55 9.5t72 21.5q2 2 52 11q43 7 59 22q110 91 145 163q17 35 25.5 82t8.5 109q0 64 -3 82q-10 62 -67 119l-18 18q-32 41 -83 79q-94 67 -174 67q-52 0 -121 -28l-23 -11l-38 -16q-2 8 -3 15.5t-1 10.5zM480 411q0 -94 -38 -132q-24 -24 -82 -38q-2 20 -4 43.5t-5 51.5 q-3 31 -5 48.5t-3.5 29.5t-2.5 21.5t-3 25.5q0 18 1.5 32.5t3.5 25.5q8 1 16.5 3t19.5 5q31 9 37 9q11 0 20.5 -2t18.5 -5q2 -2 2.5 -5t2.5 -5q21 -45 21 -108z" />
<glyph unicode="Q" horiz-adv-x="780" d="M485 338q0 -5 -6 40l-19 144h-63q-49 1 -104 -54q-55 -54 -55 -110q0 -78 64 -118q53 -32 125 -32q20 0 46 17q1 9 3 25.5t4 39.5q2 20 3.5 32t1.5 16zM738 -136q-67 -8 -229 -39q-8 45 -16 106t-16 140l-13 14q-73 -26 -89 -29q-6 -1 -22.5 -1.5t-44.5 -0.5 q-113 0 -198 63q-95 71 -95 183q0 86 62 215q74 149 164 174q41 11 97 11q51 0 126 -31q19 20 19 39q0 6 -2.5 20t-2.5 25q16 0 41.5 3t60.5 8q72 12 79 12h32q24 -92 24 -161q0 -8 -1.5 -33t-3.5 -67q-2 -38 -2.5 -75.5t0.5 -74.5q1 -42 5 -106t11 -153l11 -126 q3 -42 3 -43v-73zM116 82q14 -14 34 -29q90 -66 208 -66q29 0 46 0.5t23 1.5q13 2 36 10q7 -57 14.5 -106.5t15.5 -91.5q1 1 5 1l47 -47q82 16 147.5 27t97.5 15l15 17v73v8q0 2 -1 11q-2 19 -5 56.5t-8 94.5q-7 89 -11 152.5t-5 105.5q0 14 -0.5 27t-0.5 27q0 47 3 95 q1 11 1 19q0 9 1 17q3 51 3 65q0 72 -28 178l-46 46q-2 4 -2 7h-47q-10 0 -82 -12q-35 -5 -64.5 -8t-54.5 -3q0 -35 0.5 -48t3.5 -15l1 -2q0 -6 -6 -15q-74 27 -119 27q-60 0 -103 -12q-51 -14 -94 -60t-82 -125q-64 -134 -64 -223q0 -120 98 -196zM462 313q-1 -3 -1 -11 q0 -2 -0.5 -5t-0.5 -5q-1 -5 -1 -8q0 -2 -1 -6q-1 -8 -1.5 -16t-1.5 -13v-3q-1 -2 -1 -5q0 -2 -1 -4q-15 -9 -26 -9q-64 0 -113 29q-9 22 -9 51q0 48 50 98q49 49 89 49h4q5 -41 11.5 -69t14.5 -45h-9q0 -7 -3 -28z" />
<glyph unicode="R" horiz-adv-x="584" d="M528 315q-10 -13 -65 -18q-72 -6 -100 -16q-58 -18 -85 -64q-20 -35 -20 -110q0 -35 6.5 -94.5t19.5 -144.5q-41 -23 -109 -37l-108 -21q-5 42 -11 98t-12 128l-8 104q-3 37 -3 47v254q34 10 56.5 16t33.5 10q55 18 94 40q1 -2 2 -14l3 -35q3 -32 14 -32q6 0 61 26l51 23 q19 9 29 13q9 3 46 3q80 0 92 -37q4 -35 7 -70zM274 480l-44 44q-2 2 -2.5 4.5t-2.5 5.5q-28 -16 -55 -27.5t-53 -20.5q-5 -2 -11.5 -4t-15.5 -4q4 0 -4.5 -1.5t-13.5 -3.5l-28 -8l-31 -10v-268q0 -11 3 -48l8 -104l6 -71l7 -68q3 -33 6 -61t6 -49l6 1l47 -47l126 24 q69 13 125 45q-14 91 -21 153.5t-7 94.5q0 71 17 101h1q23 40 75 57q29 9 96 15q62 5 77 25l4 11l-6 70q-3 35 -7 70q-4 14 -15 25l-35 35q-21 45 -109 45q-42 0 -53 -4q-8 -3 -21 -9l-30 -14l-15 -7l-15 -7q-2 -2 -4.5 -2.5t-4.5 -2.5q-3 6 -6 15z" />
<glyph unicode="S" horiz-adv-x="678" d="M623 69q0 -16 -14 -66q-31 -114 -104 -153q-47 -26 -147 -26q-75 0 -171 18q-108 21 -171 53q2 30 6 73t10 100q2 0 8.5 4.5t17.5 4.5q24 0 58 -22q26 -17 43 -27t25 -14q48 -21 104 -21q47 0 65 7q39 15 39 62q0 57 -66 74q-39 9 -101 15q-62 8 -92 15q-50 13 -99 45 q-1 1 -5.5 11t-14.5 29q-14 28 -14 37q0 116 141 184q106 51 217 51q51 0 116 -9q86 -11 103 -31q0 -99 -10 -152q-172 38 -213 38q-46 0 -93 -65l21 -18q140 -29 211 -62q130 -60 130 -155zM404 302q39 0 227 -42q7 36 10 80.5t3 98.5l-47 47v4q-14 16 -44 27.5t-77 16.5 q-65 9 -118 9q-113 0 -225 -53q-153 -74 -153 -202q0 -8 4 -19t12 -27l8 -15q3 -6 7 -17h1l2 -4q1 -2 6 -9q2 -2 5 -4l6 -4l41 -40q52 -35 107 -49q17 -5 41 -9l53 -7q58 -6 99 -15v-7q0 -33 -26 -43q-18 -6 -58 -6q-51 0 -95 19l-22 12q-16 9 -44 28q-38 25 -69 25 q-11 0 -18.5 -3t-12.5 -6h-13l-6 -58q-3 -30 -5 -58l-5 -50q-2 -24 -3 -39q3 -2 5.5 -3t4.5 -2l43 -43q38 -19 84 -34t102 -26q96 -18 174 -18q53 0 91 7t64 21q79 42 112 163q15 51 15 71q0 61 -48 109l-25 24q-17 26 -46 48t-70 42q-26 11 -60 22.5t-76 22.5q19 15 39 15z " />
<glyph unicode="T" horiz-adv-x="544" d="M479 -142q-123 -41 -156 -41q-114 0 -158 104q-17 42 -37 189q-1 4 -0.5 11t1.5 18t1.5 17.5t0.5 9.5v28q0 18 1 44q1 23 1 42v33q-1 21 -1.5 40.5t-2.5 37.5q-2 -2 -2 -6q0 -3 -1 -7.5t-3.5 -7.5t-8.5 -3q-37 0 -55 8l-34 -16q-11 46 -11 65q0 7 3 24q1 7 1.5 13 t-0.5 13q7 10 7 26q8 -2 20 -4t28 -4q34 -3 48 -7q2 2 4 5.5t6 8.5q2 3 -1.5 7.5t-3.5 14.5v151q28 10 83 18q24 4 40 5.5t24 1.5h49q4 -28 3 -80q-3 -92 -3 -87q29 -11 124 1q1 -32 1.5 -74.5t0.5 -96.5q-23 1 -49 -1t-54 -7q-8 -60 -6 -225q0 -107 70 -107q7 0 33 3 q23 4 37 4v-169zM406 77v52q0 54 1 93t3 65q20 4 38 5t35 1h32v56q0 30 -0.5 58t-1 52.5t-0.5 40.5l-47 47v6q-23 -3 -42 -5t-34 -3q1 5 1 10t1 11v26q0 19 -1.5 37t-3.5 35l-46 46q-1 2 -1 7h-67q-10 0 -26.5 -1.5t-40.5 -5.5q-55 -7 -100 -24v-165q0 -9 1 -13q-7 1 -15 2 t-17 2h-9v1h-2q-14 2 -27 4.5t-32 9.5q0 -36 -7 -46v-15v-6q0 -3 -1 -8v-1q-3 -18 -3 -27q0 -23 17 -93l4 2l48 -48l46 22q2 -2 4 -2v-31q0 -16 -1 -36q-1 -26 -1 -44v-28v-3q0 -2 -0.5 -4t-0.5 -5v-6q0 -2 -0.5 -4.5t-0.5 -4.5v-4q-1 -6 -1 -11v-9v-7q10 -76 19.5 -124 t18.5 -71q24 -55 66 -85l29 -29q49 -49 132 -49q36 0 161 42l12 16v186l-47 47v6q-17 0 -33 -1t-29 -3v-1q-12 -2 -19 -2h-9h-1q-1 8 -1.5 17t-0.5 20z" />
<glyph unicode="U" horiz-adv-x="773" d="M721 -126q-5 1 -14 1q-25 0 -73 -23q-69 -32 -76 -35q-8 13 -20 35l-28 53q-13 -4 -38 -14t-63 -27q-54 -23 -119 -23q-17 0 -43 2.5t-61 7.5q-27 3 -64 40q-41 37 -48 72q-12 44 -24 115q-5 34 -7.5 55t-2.5 29v204q0 22 -7 60q-4 25 -8 42t-9 28q18 2 45.5 6t64.5 10 q38 7 65.5 11t45.5 6q2 -20 2.5 -45.5t1.5 -57.5q0 -23 -0.5 -49t-1.5 -56t-1 -45q0 -14 0 -12q0 -132 8 -166q19 -84 103 -84q38 0 117 38q1 8 2.5 32t4.5 62l4 54q1 23 1 40q0 37 -9 115l-6 61q-2 21 -2 24v65q62 0 193 33q6 0 16.5 -11.5t11.5 -23.5q3 -21 -1 -61 q-2 -26 -3 -42.5t-1 -24.5q0 -7 6 -29q7 -21 7 -33v-208q0 -52 31 -231zM313 52q-8 34 -8 162v16q0 14 1 41v15q1 26 1.5 48t0.5 42q0 16 -0.5 33.5t-1.5 34t-1.5 30.5t-1.5 24l-47 46v7q-9 -1 -24 -3l-33 -5l-38 -5l-39 -6h1q-18 -3 -38 -6l-40 -6q-19 -3 -35 -5t-25 -3 q12 -25 18 -46t10 -44q4 -20 5.5 -34t1.5 -22v-204q0 -10 2.5 -31.5t7.5 -55.5q5 -32 10.5 -58t11.5 -49q9 -48 56 -91q12 -13 26 -23l15 -15l5 -5q3 -3 6 -5q39 -39 73 -45q35 -5 61.5 -7.5t45.5 -2.5q72 0 126 24q20 9 35 16.5t28 12.5q5 -10 11 -19l10 -16l4 2l48 -48 q4 2 30 14l59 27q42 21 66 21q6 0 11 -1l20 20q-31 179 -31 228v208q0 6 -1.5 15.5t-6.5 22.5h-1q-4 16 -4 24q0 7 1 23t3 42v1q2 11 2 21v19v14q0 6 -1 11q-2 8 -7 16.5t-12 16.5l-35 35q-8 14 -21.5 24t-20.5 10q-131 -33 -212 -33v-85q0 -5 3 -35q1 -12 3 -32q1 -5 1 -10 t1 -10q9 -78 9 -113q0 -17 -1 -39l-4 -54q-2 -23 -3 -39q-1 -8 -1.5 -15.5t-0.5 -13.5q0 -3 -0.5 -6t-0.5 -6q0 -1 -1 -1v-1q-34 -15 -58 -23t-39 -8q-9 0 -17 1t-16 4q-2 8 -3 13z" />
<glyph unicode="V" d="M699 478q0 -9 -24 -61q-17 -35 -26.5 -56.5t-12.5 -29.5q-35 -88 -64.5 -176.5t-54.5 -179.5q-4 -13 -9 -34l-14 -50q-41 0 -118 -31q-98 -38 -114 -42l-237 670l63 40q37 23 88 52l164 -431q6 0 15 15q111 217 183 384h26q9 0 21.5 -10.5t20.5 -11.5q70 -12 93 -12v-36z M189 600l-3 10l-53 -31l-53 -32l-46 -29q-21 -13 -34 -22l249 -702q1 1 5 1l47 -47q19 5 51 17l80 29q75 30 125 30q5 16 9.5 34.5t7.5 29.5q2 10 4.5 18.5t4.5 14.5q24 88 54 176t65 178l14 32l24 53q26 58 26 68v53l-47 47v6q-39 0 -109 12q-3 0 -11 6t-17.5 11t-17.5 5 h-40l-73 -163l-90 -184l-126 334z" />
<glyph unicode="W" horiz-adv-x="1247" d="M1208 531q-1 -1 -90 -308q-27 -94 -49.5 -163.5t-39.5 -115.5q-13 -4 -61 -21l-130 -46h-29q-8 65 -61 186l-43 97l-43 98q-44 -53 -88 -181l-29 -95l-30 -97q-86 -7 -238 -42l-36 117l-36 115q-17 54 -59 165l-112 283l48 11l71 14l72 15l48 11q7 -17 18.5 -62.5 t28.5 -120.5q31 -134 60 -199q33 33 79 187t76 192q24 5 48 9t47 9q60 12 101 27l133 -433q11 6 25 39q25 68 75 181l58 130q20 45 22 50q42 -20 83 -33.5t81 -18.5zM1212 551q-40 5 -85 20.5t-94 38.5q-1 -3 -8 -19l-18 -41l-27 -62l-35 -77l-32 -72l-26 -63l-95 312 l-46 45l-2 9q-59 -21 -118 -33q-33 -6 -73 -14q-8 -2 -14.5 -2.5t-13.5 -2.5q-37 -48 -85 -205q-20 -68 -37 -109l-8 33q-4 17 -8 36q-17 72 -29.5 120.5t-24.5 78.5l-45 44q-1 2 -1.5 5t-1.5 5q-7 -2 -18 -4.5t-22 -4.5q-13 -3 -26 -5.5t-26 -5.5l-16 -4q-8 -2 -17 -4 l-8 -2v1q-11 -2 -23 -5l-21 -4q-12 -2 -23 -5l-20 -4v-1q-6 -2 -15 -3t-17 -3t-16 -3.5t-11 -2.5l116 -293q47 -122 64 -176l12 -39q6 -20 13 -41l27 -87l26 -83q1 1 5 1l47 -47q83 19 148 30.5t114 15.5q5 15 11 35.5t11 35.5q11 33 20 66l20 66q25 74 49 121 q18 -44 39 -84h-1q55 -126 64 -202h6l47 -47h47l135 48q53 18 66 22q18 48 41 119.5t51 168.5q87 302 86 301l-10 29l-46 45z" />
<glyph unicode="X" horiz-adv-x="805" d="M754 -87q-4 -26 -70 -61q-52 -27 -108 -43q-90 126 -162 196q-10 -8 -39 -35l-76 -76q-71 -68 -82 -68t-66 18l-93 32v26q0 11 81 134q82 122 82 133q0 8 -50 88l-51 79q-19 32 -27 48q-13 23 -10 63q37 18 159 99q72 -61 140 -156q43 34 129 156q31 -4 61 -7l62 -6 q87 -9 120 -22v-28q0 -12 -61 -88l-102 -126q-25 -32 -25 -55q0 -20 89 -159q83 -126 99 -142zM342 473l-2 1q-23 28 -47 52l-49 45l-113 -73q-45 -28 -68 -39q0 -2 -0.5 -6.5t-0.5 -8.5v-12q0 -17 3.5 -31t9.5 -26q8 -17 28 -48l51 -81q47 -76 47 -77q0 -4 -79 -122 q-84 -128 -84 -145v-46q5 0 7 -1l46 -46l15 -3q16 -2 30 -7l25 -9l34 -12q58 -19 72 -19q18 0 94 73l97 97q50 -60 110 -143q1 1 4 1l47 -47q35 10 66 21.5t57 25.5q73 38 79 73l-5 15l-1 1q-8 9 -32 43l-64 95q-86 134 -86 150q0 18 20 44h1l102 126q65 80 65 99v40l-47 47 v5q-24 10 -58.5 16.5t-79.5 11.5l-67 6q-36 4 -67 8q-68 -97 -114 -145q-11 14 -23 26t-23 25z" />
<glyph unicode="Y" horiz-adv-x="795" d="M770 740q0 -8 -40 -100l-38 -85l-32 -70q-7 -16 -16.5 -40t-20.5 -58l-39 -108q-19 -48 -47 -110l-66 -141q-91 -187 -110 -187q-5 0 -69 14q-34 8 -57 12.5t-36 6.5v35l118 276l-285 564q19 19 36 19h192q86 -173 165 -301q53 60 95 156l69 168q33 -5 55 -8t33 -5 q25 -4 45.5 -9t37.5 -10q10 0 10 -19zM321 735l-44 43q-1 2 -2 5t-2 5h-205q-25 0 -61 -36l288 -567l-116 -270v-59q4 0 7 -1l46 -46q13 -2 42.5 -7.5t63.5 -13.5q31 -7 48.5 -10.5t24.5 -3.5q29 0 125 197l66 141q29 63 48 111l39 108l20 56q9 24 17 41h-1l33 70l38 85 q21 48 31 74.5t10 32.5q0 21 -8 29l-42 41q-4 16 -24 19l-39 10q-21 6 -44 9h1q-11 2 -41.5 6t-63.5 9l-74 -181h-1q-30 -70 -65 -118l-54 102z" />
<glyph unicode="Z" horiz-adv-x="673" d="M643 344q0 5 -110 -119q-116 -131 -144 -190q8 -5 67 -5q-6 0 29 -3q21 -3 61 2v-109q1 -35 1 -50q0 -16 0 -12q-36 -5 -86 -9.5t-115 -9.5q-104 -6 -132 -6q-8 0 -26 -4t-26 -4h-130v114q0 65 30 112q13 22 84 99q73 81 132 168q-12 0 -32 -1l-46 -4q-27 -2 -42.5 -3.5 t-19.5 -1.5h-105q1 75 0 165h577q1 -7 6 -25l13 -45q14 -48 14 -59zM66 241h122h3q2 -1 5 -1q-30 -38 -60 -72v1q-40 -43 -63.5 -70.5t-31.5 -41.5h1q-30 -50 -30 -118v-134h6l47 -47h147q5 0 13 1t16 3t14.5 3t8.5 1q29 0 133 6q65 5 115.5 9.5t86.5 9.5l-16 16h31v1v18 q0 15 -1 44v128l-47 47v6l-36 -3q-15 -2 -27 -2h-5l42 53q24 30 56 65q40 45 60 78.5t20 51.5h34q0 13 -15 64q-8 27 -13 46t-7 36l-46 46q-1 2 -1 7h-615q0 -11 0.5 -27t0.5 -30v-49q0 -11 -0.5 -24t-0.5 -27v-48h6z" />
<glyph unicode="a" horiz-adv-x="795" d="M491 100q1 22 -18 60q-64 1 -125 -21q-79 -31 -94 -91q60 -32 135 -40q26 -1 51 -1t51 -1v94zM729 -51q0 -32 -6 -63q-11 -46 -30 -50q-11 -1 -30 -4t-47 -10q-55 -13 -64 -12h-51q-2 16 -6.5 36.5t-9.5 46.5q4 6 -14 6q7 0 -80 -32q-86 -33 -157 -33q-107 0 -163 68 q-46 55 -46 136q0 75 67 146q55 61 132 96q17 8 51.5 15t87.5 14q104 13 137 29q-21 35 -63 46q-21 6 -72 6q-74 0 -237 -48h-29v170l105 20l128 22q137 25 156 25q125 0 186 -127q23 -48 34.5 -104.5t12.5 -125.5q1 -61 2 -111.5t3 -92.5q3 -77 3 -69zM132 275h39 q-52 -31 -93 -77q-38 -40 -55.5 -79.5t-17.5 -80.5q0 -89 51 -149q8 -11 18 -19.5t21 -16.5l26 -26q60 -60 163 -60q77 0 163 34l16 7l16 6q1 -6 1.5 -12t2.5 -12h6l47 -47h68q16 0 66 12q28 7 47 10t31 4q30 7 42 63q6 31 6 67q0 9 -0.5 14.5t-0.5 12.5q0 6 -0.5 16 t-1.5 27q-2 42 -3 92t-2 111q-1 140 -49 238h-1q-11 24 -24 42.5t-28 34.5l-26 26q-65 86 -172 86q-23 0 -160 -25l-136 -24l-113 -21v-207h6zM440 27h-25q-12 0 -24 1q-22 1 -47 8q20 20 60 37l33 10q17 5 34 7v-64h-6q-7 0 -13 0.5t-12 0.5z" />
<glyph unicode="b" horiz-adv-x="790" d="M496 198q0 53 -24 112q-35 83 -98 83q-114 0 -114 -170q0 -5 1.5 -20t3.5 -41q4 -57 6 -81q55 -45 70 -45q155 0 155 162zM707 174q0 -133 -67 -218q-77 -98 -217 -98q-64 0 -127 18q-5 1 -12 5.5t-14 10t-13 9.5l-9 6q-24 -14 -30 -42q-7 -45 -9 -47q-29 7 -70 15 l-95 20q-10 75 -15 135.5t-5 108.5l-8 439q0 70 18 247l51 -2l51 -2q31 -1 55.5 0.5t42.5 3.5v-32q0 -20 -1 -49t-1 -51v-36q0 -91 12 -91q10 0 35 14q18 11 28 16.5t12 6.5q27 11 92 11q153 0 234 -148q62 -113 62 -250zM300 652q1 29 1 59v41l-47 47v6q-23 -2 -48.5 -4 t-48.5 -2h-21q-12 0 -23.5 0.5t-23.5 1.5h-3h-16q-9 0 -18 1q-11 0 -20.5 0.5t-15.5 1.5q-10 -99 -15 -165.5t-5 -102.5l8 -439q0 -48 5.5 -113t16.5 -148q4 0 7 -1l46 -46l40 -9l38 -8l58 -12q29 -6 49 -11q5 5 10.5 21t10.5 41q3 16 13 26l4 -4q8 -6 18 -12.5t17 -9.5 q72 -20 136 -20q148 0 229 105l1 -1q71 89 71 229q0 139 -64 258q-25 47 -59 81l-21 21q-84 108 -219 108q-68 0 -100 -13q-1 -1 -2 -1l-10 -5v33q0 20 1 46zM476 198q0 -142 -135 -142q-3 0 -6 2q-1 11 -1 24q0 14 -2 31q-1 6 -1 12t-1 11q-3 31 -3 37q0 153 97 153 q4 0 8.5 -1t9.5 -2q3 -5 5.5 -10.5t5.5 -11.5h1q11 -28 16.5 -53.5t5.5 -49.5z" />
<glyph unicode="c" horiz-adv-x="743" d="M643 -48q0 -72 -121 -109q-84 -26 -153 -26q-72 0 -175 60q-118 67 -136 148q-34 148 -34 156t9 52q10 46 12 63q12 121 117 195q91 63 195 63q10 0 35 -3l68 -8q97 -12 149 -24l15 -9l19 -13l-15 -92l-11 -73q-20 8 -44.5 15.5t-53.5 15.5q-64 16 -98 16q-75 0 -117 -61 q-34 -49 -34 -109q0 -70 39 -125q45 -62 112 -62q71 0 155 72q67 -110 67 -142zM337 159q0 55 31 99q37 54 103 54q32 0 94 -15q25 -7 53 -16.5t63 -23.5q2 16 5.5 39.5l7.5 50.5l9 56l9 53l-48 48q0 1 0.5 1.5t0.5 2.5l-17 10q-7 4 -8 5q-7 5 -12.5 8.5t-13.5 7.5 q-25 5 -63 11t-89 13l-68 8q-26 3 -37 3q-110 0 -207 -67q-111 -78 -125 -209q-1 -11 -12 -61q-9 -42 -9 -56q0 -13 34 -161q13 -64 88 -122l19 -19q34 -34 89 -66l1 -1q107 -62 184 -62q72 0 158 27q133 40 133 125q0 36 -80 168l-40 40l-9 15q-97 -83 -160 -83 q-33 0 -59 17q-14 23 -19.5 47.5t-5.5 52.5z" />
<glyph unicode="d" horiz-adv-x="793" d="M479 109q1 9 -2 37l-8 75q-5 51 -11 91l-11 72h-90q-55 0 -86 -90q-23 -66 -23 -114q0 -66 46 -115t110 -49q4 0 12.5 1t22.5 3l24 4q10 1 16 1v84zM728 -133q-15 -7 -91 -20q-67 -12 -104 -37h-28q-15 43 -15 80l-46 -11q-25 -6 -57 -12q-56 -10 -75 -10q-134 0 -218 98 q-78 90 -78 217q0 175 90 282q94 114 262 114q52 0 106 -17q9 37 9 93v94q0 27 3 53q35 -5 82 -13l108 -18q13 7 35 7v-524q1 -6 9 -62q4 -27 6 -43t2 -21v-250zM147 -123q87 -87 215 -87q22 0 78 10q12 2 23 5t21 5q2 -5 3.5 -10t3.5 -10h5l47 -47h46q38 27 101 37 q40 7 63.5 12.5t31.5 8.5l10 16v250q0 9 -2 22t-5 36q-1 2 -1 8q-4 27 -6 43t-3 20v538l-47 47v6q-41 0 -59 -6q-5 0 -7 1q-14 2 -26.5 4.5t-24.5 4.5l-25 4l-27 4q-26 5 -51.5 9t-42.5 6q-2 -21 -3.5 -40t-1.5 -36v-94q0 -35 -6 -68q-47 12 -89 12q-177 0 -277 -121 q-95 -113 -95 -295q0 -135 83 -230q11 -14 23.5 -25t26.5 -22zM436 40l-22 -3q-7 -1 -10 -1q-38 0 -70 20q-19 34 -19 74q0 44 22 108q28 79 70 79h30l6 -48l6 -50q1 -5 1 -10t1 -10q4 -34 6 -56t2 -30v-70q-5 -1 -11 -1.5t-12 -1.5z" />
<glyph unicode="e" horiz-adv-x="793" d="M511 356q1 43 -49 69q-39 21 -80 21q-7 0 -17.5 -3.5t-22 -8.5t-22 -11.5t-17.5 -12.5q-23 -19 -43 -42t-37 -51q-6 -21 13 -21q8 0 42.5 1t96.5 3q43 1 76.5 0.5t59.5 -2.5v58zM701 1q0 -47 -12 -71l-49 -33l-27 -17q-24 -14 -46.5 -23.5t-42.5 -14.5q-79 -17 -138 -17 q-9 0 -49 9q-22 5 -36.5 7.5t-21.5 3.5q-119 14 -197 123q-66 91 -66 186q0 8 6 35q7 27 7 40q0 151 125 249q112 86 244 86q20 0 79 -17q64 -20 79 -35q8 -8 17 -16l18 -16q13 -12 21.5 -23t13.5 -21q22 -45 45 -115q22 -66 22 -84t-10 -27l-426 -24q-5 -5 -5 -20 q0 -22 34 -83q40 -70 73 -70h73q94 0 258 54q11 -19 11 -66zM351 41q-32 55 -32 75v3l421 24q20 17 20 44q0 9 -5.5 31.5t-17.5 57.5q-12 36 -23.5 65t-22.5 52q-5 11 -12.5 21.5t-18.5 21.5l-28 28q-11 15 -27 30q-2 2 -3.5 2.5t-3.5 2.5l-6 6q-6 5 -11 10l-11 11 q-19 19 -87 40q-60 18 -85 18q-140 0 -256 -91q-133 -103 -133 -264q0 -8 -7 -35q-6 -27 -6 -40q0 -101 70 -198q34 -48 73 -77l19 -19q71 -72 169 -82q5 -1 19 -3.5t37 -7.5q40 -9 53 -9q33 0 68.5 4.5t73.5 12.5q44 11 94 40l29 19l51 34q16 31 16 83t-20 86l-42 41 q-2 3 -3 6.5t-3 6.5q-175 -58 -268 -58h-73h-4q-3 4 -4 8zM433 321h-27q-8 0 -16 -0.5t-16 -0.5q-11 -1 -21.5 -1.5t-20.5 -0.5q8 8 16 15l16 14q6 5 15.5 11t19 10.5t18.5 7.5t15 3q31 0 58 -13q1 -2 1 -8v-39q-15 1 -29.5 1.5t-28.5 0.5z" />
<glyph unicode="f" horiz-adv-x="614" d="M576 774q0 -12 -1 -31.5t-3 -47.5q-3 -56 -3 -80l-20 -18q-17 10 -45 21q-30 11 -45 11q-32 0 -61 -32q-24 -29 -24 -53q0 -12 3.5 -16t3.5 -6q43 -15 79 -15h25q8 -1 14 -1h12q8 -44 12.5 -75.5t4.5 -51.5q-17 -24 -51 -24h-28q-38 0 -59 -24v-492q-156 -6 -234 0v498 q-7 1 -38 1h-88q5 84 8 130t3 54q31 9 107 9q27 175 100 224q52 37 203 37q7 0 54 -9q48 -9 71 -9zM577 794q-20 0 -68 9q-47 9 -58 9q-157 0 -222 -46q-69 -53 -98 -215q-35 -1 -62 -4.5t-48 -9.5q0 -8 -2 -52.5t-7 -110.5q-1 -5 -1 -13t-1 -16q-1 -7 -1.5 -14.5 t-0.5 -12.5h6l47 -47h75v-451h6l47 -47q20 -2 52.5 -3t61.5 -1t72 1t82 3v501q16 14 42 14h28q44 0 68 35q0 25 -5 62t-15 88l-46 45q0 2 -0.5 4t-0.5 4h-22q-11 0 -19 1h-27h-7q2 3 8 9q24 26 48 26q11 0 39 -10q15 -5 28 -11.5t25 -14.5l35 31q0 13 0.5 36t2.5 51t3 47.5 t1 32.5l-47 47v4z" />
<glyph unicode="g" horiz-adv-x="668" d="M397 254v12l-2 33q-1 23 -1 42v36q-1 24 -0.5 43.5t2.5 34.5h-61q-48 0 -91 -61q-39 -56 -39 -104q0 -41 42 -71q37 -28 77 -28q73 0 73 63zM616 290q0 -193 -44 -295q-71 -168 -264 -168q-6 0 -28.5 4t-60.5 12q-42 8 -76 16l-63 15q1 13 1 47v90q176 -31 184 -31 q29 0 73 15q53 17 53 41v63q-92 -27 -133 -27q-102 0 -170 67q-68 68 -68 164q0 61 21 118q24 62 66 98q30 25 96 48q61 21 95 21q63 0 116 -40q3 3 6 9.5t6 14.5l6 14q3 8 6 12q9 3 26 3t46 -3.5t71 -10.5q16 -30 19 -55q8 -63 12 -122.5t4 -119.5zM126 77 q36 -36 79.5 -53.5t94.5 -18.5q-11 -3 -19.5 -4t-15.5 -1q-1 0 -50 8l-154 28v-57q0 -29 -0.5 -53.5t-1 -43t-0.5 -24.5q1 0 7 -2l46 -46l70 -17q41 -9 83 -17q38 -8 61.5 -12t31.5 -4q205 0 280 178q45 102 45 302q0 60 -4 120.5t-12 123.5q-3 26 -25 69l-43 42 q-1 3 -2 5.5t-3 5.5q-90 15 -130 15q-19 0 -37 -6q-13 -16 -16 -22t-3 -8v-4l-2 -4q-52 31 -108 31q-39 0 -101 -22q-68 -23 -103 -52q-47 -39 -72 -106q-22 -59 -22 -125q0 -104 74 -178l14 -14q7 -6 15 -11zM377 254q0 -43 -53 -43q-28 0 -50 14q-2 8 -2 15q0 43 36 94 q34 46 66 52v-9v-37q0 -19 1 -42q0 -8 0.5 -13.5t0.5 -10.5q0 -6 0.5 -10.5t0.5 -6.5v-3z" />
<glyph unicode="h" d="M710 -98q0 -23 -21 -50q-9 -1 -82 -21q-26 -7 -42 -10.5t-22 -2.5h-42v203q-1 67 -4 114.5t-9 76.5q-27 136 -113 136q-109 0 -109 -132v-259q0 -44 -26 -107q-23 2 -199 0v268q-2 51 15 170l9 461q11 11 44 11q8 0 40 12t42 11h90q18 -46 17 -137l-1 -108q-1 -36 -1 -37 q19 8 45 17.5t58 19.5q68 20 81 20q104 0 166 -104q48 -83 63 -216q-6 -6 -5 -51q0 -42 6 -285zM365 596v13q0 44 -5.5 79t-16.5 62l-45 44l-3 9h-106q-16 0 -47 -12q-30 -11 -33 -11q-41 0 -64 -23l-9 -467q-15 -108 -15 -163v-297h6l47 -47q44 0 87 0.5t68 0.5t46 -0.5 t27 -0.5q31 76 31 124v259q0 115 92 115q5 0 10 -1l10 -2q7 -14 12.5 -31.5t10.5 -39.5q11 -56 13 -186v-223h6l47 -47h61q13 0 66 14q34 9 54.5 14t31.5 7q30 39 30 66q-6 243 -6 285v14q0 25 6 31q-17 147 -66 231q-10 16 -20.5 30t-21.5 25l-19 18q-63 92 -170 92 q-18 0 -87 -21q-8 -2 -15 -4.5t-14 -4.5q0 11 0.5 22.5t0.5 25.5z" />
<glyph unicode="i" horiz-adv-x="333" d="M285 -110q-22 -8 -72.5 -22t-131.5 -34q1 37 1.5 74t1.5 75q1 90 -3 154q-15 223 -33 360q27 7 99 15q39 5 67.5 9t45.5 8zM277 571q-20 3 -55 3q-12 0 -27 -0.5t-33 -1.5q-17 -1 -27 -1.5t-12 -0.5q-83 0 -83 36v137q39 -4 67.5 -5.5t46.5 -1.5q66 0 105 16l18 -18v-163 zM344 691l-47 47v4l-34 34q-50 -20 -109 -20q-34 0 -134 9v-159q0 -30 28 -43l37 -37q0 -1 1 -2q-17 -2 -31.5 -5.5t-28.5 -7.5q9 -69 18 -166t17 -209q3 -48 3 -110v-43q0 -18 -0.5 -39.5t-0.5 -43.5q-1 -23 -1 -47q0 -25 -1 -44l2 1q1 0 3 1l48 -48l153 39q57 15 74 22 l11 17l-26 659l-5 4h3l20 17v170z" />
<glyph unicode="j" horiz-adv-x="405" d="M357 141v-88q0 -31 -1 -38q-6 -80 -34 -114q-28 -36 -80 -58q-54 -23 -93 -23q-6 0 -129 41v33q-2 12 18 51q20 38 33 38q8 0 18 -3.5t18 -3.5q91 0 91 141q0 8 -0.5 18.5t-1.5 21.5t-1 17v9l-13 261q-4 2 -7 2q-6 0 -21.5 -4.5t-21.5 -4.5h-40v122q11 2 36 5.5t63 10.5 q32 5 50 7.5t23 2.5h60zM176 629q-8 24 -8 46q0 7 1 18.5t2.5 24t3 23.5t1.5 19q66 20 123 20q9 0 16 -6t12 -15t7.5 -19.5t2.5 -19.5v-91h-161zM125 370h40l10 -188v-9q0 -6 1 -17v-9q1 -8 1.5 -15.5t0.5 -14.5q0 -121 -71 -121q-4 0 -12 2q-2 1 -3 1t-3 1q-9 3 -18 3 q-25 0 -51 -49q-10 -20 -15 -34t-5 -24v-49l7 -2l46 -46l105 -34q36 -12 41 -12q46 0 100 24q55 25 85 64l1 -1q32 38 38 123v1q1 8 1 39v88v1l-34 460l-10 10h24v110q0 15 -7 32t-18 29l-36 35q-8 14 -19 23t-25 9q-56 0 -143 -26q0 -16 -1 -29.5t-3 -25.5t-3 -23.5 t-1 -20.5q0 -26 14 -66h5l14 -15q-37 -7 -67.5 -11t-41.5 -6v-160h6z" />
<glyph unicode="k" horiz-adv-x="805" d="M779 -105q-34 -30 -98 -46q-29 -5 -57 -11t-57 -11q0 24 -4 33l-57 69l-56 68q-86 93 -149 107q-9 -54 -15 -134q-9 -132 -9 -135q-107 11 -235 0v394q-1 5 0.5 23t3.5 47q4 38 5.5 61.5t2.5 33.5q2 48 3 95.5t3 95.5q3 101 25 170q2 1 27 4t73 10q67 9 92 22l-7 -322 q8 -26 8 -56q0 -10 -1 -31t-1 -31q0 -45 15 -76l236 271q8 -1 58 -1h143q9 -14 9 -21l-188 -290q11 -26 27.5 -59t39.5 -73q25 -21 69 -66l39 -58zM618 183l186 287q0 16 -17 42l-40 40l-4 6q-2 3 -4 7h-150q-53 0 -70 2l-174 -200q-1 15 -3 28.5t-5 25.5l8 348l-47 47v8 q-28 -14 -56.5 -22t-58.5 -13q-12 -2 -23 -3t-20 -3q-8 -2 -15 -2.5t-13 -1.5q-16 -2 -25 -3.5t-19 -6.5q-25 -78 -28 -183l-2 -64l-2 -64q-1 -16 -1 -32t-1 -32v-4q0 -2 -0.5 -2.5t-0.5 -1.5q-1 -12 -2.5 -33t-4.5 -52q0 -2 -0.5 -3t-0.5 -3v-5q-3 -38 -3 -54v-422 q2 0 2.5 0.5t2.5 0.5l48 -48q16 1 34 2l37 2q19 1 36.5 1.5t32.5 0.5q26 0 58.5 -2t70.5 -5q0 2 2 44.5t7 108.5q4 64 12 112q27 -11 57 -34q4 -4 7.5 -8t8.5 -9l53 -65l54 -64q1 -5 1.5 -17.5t0.5 -29.5q1 1 2 0.5t3 0.5l48 -48q7 1 17 3l22 4q11 2 21.5 3.5t17.5 3.5 q14 3 28.5 5.5t28.5 5.5q34 8 60.5 21t44.5 29l3 23l-57 84l-39 59l-15 15l-14 15l-12 11l-2 4l-2 4l-34 34q-16 28 -28 53z" />
<glyph unicode="l" horiz-adv-x="311" d="M257 -143q-60 -4 -185 -24l-9 627q-16 92 -16 149q0 3 1 18l3 43l4 48q1 20 1 34q32 8 82 15.5t119 15.5v-926zM105 -237q146 23 203 27l16 17v945l-47 47v6q-80 -8 -139.5 -17.5t-101.5 -20.5q0 -23 -2 -46l-3 -50q-2 -28 -3 -43.5t-1 -18.5q0 -62 16 -154l9 -645 q1 1 2 0.5t3 0.5z" />
<glyph unicode="m" horiz-adv-x="1224" d="M1173 -123q-4 -1 -22 -16q-13 -10 -23 -10q-5 0 -22 1t-46 3t-45 3t-20 1h-61q-3 94 -3 157q0 22 0.5 42.5t1 35.5t1.5 24v8q0 219 -95 219q-29 0 -65 -30t-36 -48q0 -4 -0.5 -12t-0.5 -18l-1 -19q-1 -10 -1 -17l-1 -357h-246v232q-1 29 -8 78.5t-20 119.5q-3 14 -22 36 q-23 27 -41 27q-81 0 -118 -60q-27 -44 -32 -127q-2 -29 -3 -57l-2 -58q-1 -12 6 -46q8 -37 8 -42v-113l-58 2l-58 2q-62 2 -97 -3q-4 94 -2 172.5t9 143.5l10 376q25 -16 72 -16q13 0 123 15q2 -39 -7 -60q4 -4 6.5 -10.5t6.5 -10.5l111 63q69 36 136 36q61 0 93 -29 q32 -28 73 -120q109 94 144 117q64 40 141 40q79 0 114 -29q38 -34 56 -106q8 -32 15.5 -76.5t15.5 -101.5q7 -49 10 -79t3 -41v-242zM1134 486l-21 21q-11 17 -27 31q-40 34 -127 34q-84 0 -152 -43q-14 -8 -41 -31l-71 -59q-12 18 -25 32l-31 31l-13 15q-6 8 -12 13 q-37 34 -106 34q-71 0 -145 -38l-46 -26l-42 43v6q-131 -18 -143 -18q-42 0 -91 32l-11 -410q-9 -87 -9 -202q0 -28 0.5 -67.5t2.5 -70.5q2 0 2.5 0.5t2.5 0.5l48 -48q22 2 43 3.5t41 1.5h28q14 -1 29 -1t29 -1t37.5 -1.5t38.5 -0.5v130q0 7 -2 18t-6 28q-6 28 -6 37v5l2 57 q1 28 3 57q2 39 9 69t20 50q28 49 97 52q13 -70 20 -118.5t8 -75.5v-252h6l47 -47h280l1 374q0 8 0.5 18t1.5 21q1 8 1 15v12q0 9 30 35q32 26 54 26h5q20 -52 20 -155h6l18 -18q-5 -8 -9 -18q-7 -14 -12.5 -32.5t-5.5 -38.5q0 -32 1 -80.5t3 -96.5h6l47 -47h77q4 0 19 -1 l45 -3q29 -2 46.5 -3t22.5 -1q15 0 33 14q7 5 11 8.5t6 4.5l12 16v242q0 12 -3 42.5t-10 79.5q-13 107 -32 180h1q-18 69 -54 107l-3 2q-2 2 -2.5 3t-2.5 3z" />
<glyph unicode="n" horiz-adv-x="798" d="M770 -124q-16 -2 -43.5 -9t-67.5 -19q-72 -22 -82 -22h-40q-9 0 -9 11v5l2 11q2 11 0 16q-8 4 -20 17q-4 34 -8 85l-9 120q-1 61 -2.5 98t-4.5 50q-20 86 -97 86q-33 0 -39 -3l-36 -18q-13 -7 -19 -11q-30 -21 -39 -48q-5 -15 -7 -134v-26q0 -11 -1 -19q-1 -17 0 -41.5 t5 -56.5q9 -68 9 -72v-61q-17 1 -44 -1t-64 -7q-30 -5 -60 -9l-61 -8v109q0 8 6 173q3 90 4.5 144.5t2.5 75.5q1 63 0 105.5t-5 67.5q12 7 12 16q0 -13 29 -13q8 0 62 17q29 10 50 15.5t34 7.5q-2 -23 0 -45t7 -44q140 95 244 109q3 0 10 2.5t15.5 5t16 4.5t12.5 2 q24 0 73 -28q45 -26 54 -39q24 -36 47 -108q14 -46 26.5 -111t22.5 -152q0 -3 2.5 -10t5 -15.5t4.5 -17t2 -14.5v-191zM66 -259l71 9q40 5 70 10t53 6.5t40 1.5h29v78q0 6 -9 74q-3 25 -4 44.5t-1 34.5v15q1 8 1 20v27q1 57 2 89t4 39q7 22 33 40h-1q6 4 19 11t34 17 q1 1 32 1q5 0 10 -0.5t10 -1.5q2 -5 3.5 -10.5t3.5 -11.5q3 -13 4.5 -49t2.5 -95q5 -69 9.5 -124t8.5 -89l9 -9q5 -5 10 -9v-1q-1 -4 -1 -8v-8q0 -2 -0.5 -2.5t-0.5 -1.5v-1q0 -24 19 -30l41 -41q6 -7 19 -7h40q5 0 27 5.5t60 17.5q76 22 108 27l15 17v191q0 8 -4 21l-7 25 q-3 7 -3 13q-10 87 -22.5 152.5t-27.5 113.5q-24 74 -49 112q-2 3 -7 8l-36 35q-2 2 -2.5 4.5t-2.5 4.5q-12 19 -61 46q-51 30 -82 30q-8 0 -17.5 -2.5t-18.5 -5.5q-2 -1 -3 -1t-3 -1t-3 -1t-3 -1l-8 -2q-81 -11 -181 -68l-46 47q0 4 1 6q-22 -4 -51 -11t-62 -18l-6 -2 l-6 -2q-39 -12 -44 -12q-12 0 -15 -4h-31v-1q-2 0 -6 -2.5t-11 -6.5q5 -27 6 -58.5t1 -71.5v-52v-15q0 -8 -1 -19q0 -5 -0.5 -9.5t-0.5 -9.5q0 -14 -0.5 -30t-1.5 -35q-1 -42 -3 -101q-6 -165 -6 -174v-131q1 0 2 0.5t3 0.5z" />
<glyph unicode="o" d="M504 190q0 111 -51 143q-25 16 -65 29q-41 15 -55 15q-49 0 -85 -77q-28 -57 -28 -94q0 -54 36 -115q47 -80 118 -80q64 0 100 62q30 51 30 117zM715 162q0 -47 -20 -98q-15 -38 -56 -107q-39 -65 -151 -102q-89 -30 -163 -30q-27 0 -49.5 2.5t-42.5 7.5t-39 13.5 t-40 20.5q-54 33 -70 64q-11 23 -23 56t-24 78q-21 78 -21 99q0 48 19 130q23 102 50 121l63 46l62 47q67 46 131 46q181 0 285 -131q89 -113 89 -263zM142 -155q11 -11 23.5 -21t29.5 -20q21 -12 41 -21t41 -14.5t45 -8t53 -2.5q79 0 168 31q119 40 161 109q40 65 57 110 q21 51 21 104q0 157 -93 274q-12 16 -29 33l-19 19q-110 138 -300 138q-71 0 -143 -50l-62 -47l-63 -46q-34 -24 -58 -132q-19 -82 -19 -135q0 -23 22 -104q13 -47 25 -81t23 -57q16 -32 57 -60zM484 190q0 -59 -28 -106q-32 -53 -82 -53q-28 0 -52 15q0 3 -1 4 q-34 56 -34 106q0 16 6 38t20 49q32 67 70 67q9 0 49 -14q11 -5 20.5 -8t17.5 -6q14 -34 14 -92z" />
<glyph unicode="p" horiz-adv-x="815" d="M500 411q0 69 -22 116q-33 76 -113 76q-10 0 -41 -9q-16 -4 -26.5 -6t-17.5 -2q-10 -26 -10 -77l4 -31l10 -94q14 -125 12 -173q116 12 160 54q44 44 44 146zM762 472q0 -118 -32 -184q-34 -69 -141 -157q-12 -11 -51 -18q-53 -11 -57 -13q-77 -26 -120 -29 q-19 -1 -38 -1.5t-38 -1.5q-12 -21 -12 -41q0 -9 3 -19l3 -10q0 -4 -9 -62q-9 -59 -9 -93h-108q-56 0 -119 -1v891q8 -1 15 -1.5t15 -0.5q37 0 87 18q21 8 42 17t42 17l7 -42q5 -24 10 -56q46 23 75.5 36.5t42.5 18.5q67 27 114 27q73 0 162 -63q100 -71 113 -153 q3 -18 3 -79zM298 758l-47 46v9l-15 -6l-20 -9l-17 -7l-14 -6q-2 -1 -5 -2t-5 -2q-13 -6 -31 -13q-49 -17 -80 -17q-8 0 -21.5 1t-28.5 3v-933h6l47 -47q31 0 66 0.5t69 0.5h67h59q0 48 9 107q9 58 9 68q-5 13 -5.5 16t-0.5 10q0 11 5 24h14q7 0 15 1q9 0 18.5 0.5t19.5 1.5 q23 2 55 9.5t72 21.5q2 2 52 11q43 7 59 22q110 91 145 163q17 35 25.5 82t8.5 109q0 64 -3 82q-10 62 -67 119l-18 18q-32 41 -83 79q-94 67 -174 67q-52 0 -121 -28l-23 -11l-38 -16q-2 8 -3 15.5t-1 10.5zM480 411q0 -94 -38 -132q-24 -24 -82 -38q-2 20 -4 43.5t-5 51.5 q-3 31 -5 48.5t-3.5 29.5t-2.5 21.5t-3 25.5q0 18 1.5 32.5t3.5 25.5q8 1 16.5 3t19.5 5q31 9 37 9q11 0 20.5 -2t18.5 -5q2 -2 2.5 -5t2.5 -5q21 -45 21 -108z" />
<glyph unicode="q" horiz-adv-x="780" d="M485 338q0 -5 -6 40l-19 144h-63q-49 1 -104 -54q-55 -54 -55 -110q0 -78 64 -118q53 -32 125 -32q20 0 46 17q1 9 3 25.5t4 39.5q2 20 3.5 32t1.5 16zM738 -136q-67 -8 -229 -39q-8 45 -16 106t-16 140l-13 14q-73 -26 -89 -29q-6 -1 -22.5 -1.5t-44.5 -0.5 q-113 0 -198 63q-95 71 -95 183q0 86 62 215q74 149 164 174q41 11 97 11q51 0 126 -31q19 20 19 39q0 6 -2.5 20t-2.5 25q16 0 41.5 3t60.5 8q72 12 79 12h32q24 -92 24 -161q0 -8 -1.5 -33t-3.5 -67q-2 -38 -2.5 -75.5t0.5 -74.5q1 -42 5 -106t11 -153l11 -126 q3 -42 3 -43v-73zM116 82q14 -14 34 -29q90 -66 208 -66q29 0 46 0.5t23 1.5q13 2 36 10q7 -57 14.5 -106.5t15.5 -91.5q1 1 5 1l47 -47q82 16 147.5 27t97.5 15l15 17v73v8q0 2 -1 11q-2 19 -5 56.5t-8 94.5q-7 89 -11 152.5t-5 105.5q0 14 -0.5 27t-0.5 27q0 47 3 95 q1 11 1 19q0 9 1 17q3 51 3 65q0 72 -28 178l-46 46q-2 4 -2 7h-47q-10 0 -82 -12q-35 -5 -64.5 -8t-54.5 -3q0 -35 0.5 -48t3.5 -15l1 -2q0 -6 -6 -15q-74 27 -119 27q-60 0 -103 -12q-51 -14 -94 -60t-82 -125q-64 -134 -64 -223q0 -120 98 -196zM462 313q-1 -3 -1 -11 q0 -2 -0.5 -5t-0.5 -5q-1 -5 -1 -8q0 -2 -1 -6q-1 -8 -1.5 -16t-1.5 -13v-3q-1 -2 -1 -5q0 -2 -1 -4q-15 -9 -26 -9q-64 0 -113 29q-9 22 -9 51q0 48 50 98q49 49 89 49h4q5 -41 11.5 -69t14.5 -45h-9q0 -7 -3 -28z" />
<glyph unicode="r" horiz-adv-x="584" d="M528 315q-10 -13 -65 -18q-72 -6 -100 -16q-58 -18 -85 -64q-20 -35 -20 -110q0 -35 6.5 -94.5t19.5 -144.5q-41 -23 -109 -37l-108 -21q-5 42 -11 98t-12 128l-8 104q-3 37 -3 47v254q34 10 56.5 16t33.5 10q55 18 94 40q1 -2 2 -14l3 -35q3 -32 14 -32q6 0 61 26l51 23 q19 9 29 13q9 3 46 3q80 0 92 -37q4 -35 7 -70zM274 480l-44 44q-2 2 -2.5 4.5t-2.5 5.5q-28 -16 -55 -27.5t-53 -20.5q-5 -2 -11.5 -4t-15.5 -4q4 0 -4.5 -1.5t-13.5 -3.5l-28 -8l-31 -10v-268q0 -11 3 -48l8 -104l6 -71l7 -68q3 -33 6 -61t6 -49l6 1l47 -47l126 24 q69 13 125 45q-14 91 -21 153.5t-7 94.5q0 71 17 101h1q23 40 75 57q29 9 96 15q62 5 77 25l4 11l-6 70q-3 35 -7 70q-4 14 -15 25l-35 35q-21 45 -109 45q-42 0 -53 -4q-8 -3 -21 -9l-30 -14l-15 -7l-15 -7q-2 -2 -4.5 -2.5t-4.5 -2.5q-3 6 -6 15z" />
<glyph unicode="s" horiz-adv-x="678" d="M623 69q0 -16 -14 -66q-31 -114 -104 -153q-47 -26 -147 -26q-75 0 -171 18q-108 21 -171 53q2 30 6 73t10 100q2 0 8.5 4.5t17.5 4.5q24 0 58 -22q26 -17 43 -27t25 -14q48 -21 104 -21q47 0 65 7q39 15 39 62q0 57 -66 74q-39 9 -101 15q-62 8 -92 15q-50 13 -99 45 q-1 1 -5.5 11t-14.5 29q-14 28 -14 37q0 116 141 184q106 51 217 51q51 0 116 -9q86 -11 103 -31q0 -99 -10 -152q-172 38 -213 38q-46 0 -93 -65l21 -18q140 -29 211 -62q130 -60 130 -155zM404 302q39 0 227 -42q7 36 10 80.5t3 98.5l-47 47v4q-14 16 -44 27.5t-77 16.5 q-65 9 -118 9q-113 0 -225 -53q-153 -74 -153 -202q0 -8 4 -19t12 -27l8 -15q3 -6 7 -17h1l2 -4q1 -2 6 -9q2 -2 5 -4l6 -4l41 -40q52 -35 107 -49q17 -5 41 -9l53 -7q58 -6 99 -15v-7q0 -33 -26 -43q-18 -6 -58 -6q-51 0 -95 19l-22 12q-16 9 -44 28q-38 25 -69 25 q-11 0 -18.5 -3t-12.5 -6h-13l-6 -58q-3 -30 -5 -58l-5 -50q-2 -24 -3 -39q3 -2 5.5 -3t4.5 -2l43 -43q38 -19 84 -34t102 -26q96 -18 174 -18q53 0 91 7t64 21q79 42 112 163q15 51 15 71q0 61 -48 109l-25 24q-17 26 -46 48t-70 42q-26 11 -60 22.5t-76 22.5q19 15 39 15z " />
<glyph unicode="t" horiz-adv-x="544" d="M479 -142q-123 -41 -156 -41q-114 0 -158 104q-17 42 -37 189q-1 4 -0.5 11t1.5 18t1.5 17.5t0.5 9.5v28q0 18 1 44q1 23 1 42v33q-1 21 -1.5 40.5t-2.5 37.5q-2 -2 -2 -6q0 -3 -1 -7.5t-3.5 -7.5t-8.5 -3q-37 0 -55 8l-34 -16q-11 46 -11 65q0 7 3 24q1 7 1.5 13 t-0.5 13q7 10 7 26q8 -2 20 -4t28 -4q34 -3 48 -7q2 2 4 5.5t6 8.5q2 3 -1.5 7.5t-3.5 14.5v151q28 10 83 18q24 4 40 5.5t24 1.5h49q4 -28 3 -80q-3 -92 -3 -87q29 -11 124 1q1 -32 1.5 -74.5t0.5 -96.5q-23 1 -49 -1t-54 -7q-8 -60 -6 -225q0 -107 70 -107q7 0 33 3 q23 4 37 4v-169zM406 77v52q0 54 1 93t3 65q20 4 38 5t35 1h32v56q0 30 -0.5 58t-1 52.5t-0.5 40.5l-47 47v6q-23 -3 -42 -5t-34 -3q1 5 1 10t1 11v26q0 19 -1.5 37t-3.5 35l-46 46q-1 2 -1 7h-67q-10 0 -26.5 -1.5t-40.5 -5.5q-55 -7 -100 -24v-165q0 -9 1 -13q-7 1 -15 2 t-17 2h-9v1h-2q-14 2 -27 4.5t-32 9.5q0 -36 -7 -46v-15v-6q0 -3 -1 -8v-1q-3 -18 -3 -27q0 -23 17 -93l4 2l48 -48l46 22q2 -2 4 -2v-31q0 -16 -1 -36q-1 -26 -1 -44v-28v-3q0 -2 -0.5 -4t-0.5 -5v-6q0 -2 -0.5 -4.5t-0.5 -4.5v-4q-1 -6 -1 -11v-9v-7q10 -76 19.5 -124 t18.5 -71q24 -55 66 -85l29 -29q49 -49 132 -49q36 0 161 42l12 16v186l-47 47v6q-17 0 -33 -1t-29 -3v-1q-12 -2 -19 -2h-9h-1q-1 8 -1.5 17t-0.5 20z" />
<glyph unicode="u" horiz-adv-x="773" d="M721 -126q-5 1 -14 1q-25 0 -73 -23q-69 -32 -76 -35q-8 13 -20 35l-28 53q-13 -4 -38 -14t-63 -27q-54 -23 -119 -23q-17 0 -43 2.5t-61 7.5q-27 3 -64 40q-41 37 -48 72q-12 44 -24 115q-5 34 -7.5 55t-2.5 29v204q0 22 -7 60q-4 25 -8 42t-9 28q18 2 45.5 6t64.5 10 q38 7 65.5 11t45.5 6q2 -20 2.5 -45.5t1.5 -57.5q0 -23 -0.5 -49t-1.5 -56t-1 -45q0 -14 0 -12q0 -132 8 -166q19 -84 103 -84q38 0 117 38q1 8 2.5 32t4.5 62l4 54q1 23 1 40q0 37 -9 115l-6 61q-2 21 -2 24v65q62 0 193 33q6 0 16.5 -11.5t11.5 -23.5q3 -21 -1 -61 q-2 -26 -3 -42.5t-1 -24.5q0 -7 6 -29q7 -21 7 -33v-208q0 -52 31 -231zM313 52q-8 34 -8 162v16q0 14 1 41v15q1 26 1.5 48t0.5 42q0 16 -0.5 33.5t-1.5 34t-1.5 30.5t-1.5 24l-47 46v7q-9 -1 -24 -3l-33 -5l-38 -5l-39 -6h1q-18 -3 -38 -6l-40 -6q-19 -3 -35 -5t-25 -3 q12 -25 18 -46t10 -44q4 -20 5.5 -34t1.5 -22v-204q0 -10 2.5 -31.5t7.5 -55.5q5 -32 10.5 -58t11.5 -49q9 -48 56 -91q12 -13 26 -23l15 -15l5 -5q3 -3 6 -5q39 -39 73 -45q35 -5 61.5 -7.5t45.5 -2.5q72 0 126 24q20 9 35 16.5t28 12.5q5 -10 11 -19l10 -16l4 2l48 -48 q4 2 30 14l59 27q42 21 66 21q6 0 11 -1l20 20q-31 179 -31 228v208q0 6 -1.5 15.5t-6.5 22.5h-1q-4 16 -4 24q0 7 1 23t3 42v1q2 11 2 21v19v14q0 6 -1 11q-2 8 -7 16.5t-12 16.5l-35 35q-8 14 -21.5 24t-20.5 10q-131 -33 -212 -33v-85q0 -5 3 -35q1 -12 3 -32q1 -5 1 -10 t1 -10q9 -78 9 -113q0 -17 -1 -39l-4 -54q-2 -23 -3 -39q-1 -8 -1.5 -15.5t-0.5 -13.5q0 -3 -0.5 -6t-0.5 -6q0 -1 -1 -1v-1q-34 -15 -58 -23t-39 -8q-9 0 -17 1t-16 4q-2 8 -3 13z" />
<glyph unicode="v" d="M699 478q0 -9 -24 -61q-17 -35 -26.5 -56.5t-12.5 -29.5q-35 -88 -64.5 -176.5t-54.5 -179.5q-4 -13 -9 -34l-14 -50q-41 0 -118 -31q-98 -38 -114 -42l-237 670l63 40q37 23 88 52l164 -431q6 0 15 15q111 217 183 384h26q9 0 21.5 -10.5t20.5 -11.5q70 -12 93 -12v-36z M189 600l-3 10l-53 -31l-53 -32l-46 -29q-21 -13 -34 -22l249 -702q1 1 5 1l47 -47q19 5 51 17l80 29q75 30 125 30q5 16 9.5 34.5t7.5 29.5q2 10 4.5 18.5t4.5 14.5q24 88 54 176t65 178l14 32l24 53q26 58 26 68v53l-47 47v6q-39 0 -109 12q-3 0 -11 6t-17.5 11t-17.5 5 h-40l-73 -163l-90 -184l-126 334z" />
<glyph unicode="w" horiz-adv-x="1247" d="M1208 531q-1 -1 -90 -308q-27 -94 -49.5 -163.5t-39.5 -115.5q-13 -4 -61 -21l-130 -46h-29q-8 65 -61 186l-43 97l-43 98q-44 -53 -88 -181l-29 -95l-30 -97q-86 -7 -238 -42l-36 117l-36 115q-17 54 -59 165l-112 283l48 11l71 14l72 15l48 11q7 -17 18.5 -62.5 t28.5 -120.5q31 -134 60 -199q33 33 79 187t76 192q24 5 48 9t47 9q60 12 101 27l133 -433q11 6 25 39q25 68 75 181l58 130q20 45 22 50q42 -20 83 -33.5t81 -18.5zM1212 551q-40 5 -85 20.5t-94 38.5q-1 -3 -8 -19l-18 -41l-27 -62l-35 -77l-32 -72l-26 -63l-95 312 l-46 45l-2 9q-59 -21 -118 -33q-33 -6 -73 -14q-8 -2 -14.5 -2.5t-13.5 -2.5q-37 -48 -85 -205q-20 -68 -37 -109l-8 33q-4 17 -8 36q-17 72 -29.5 120.5t-24.5 78.5l-45 44q-1 2 -1.5 5t-1.5 5q-7 -2 -18 -4.5t-22 -4.5q-13 -3 -26 -5.5t-26 -5.5l-16 -4q-8 -2 -17 -4 l-8 -2v1q-11 -2 -23 -5l-21 -4q-12 -2 -23 -5l-20 -4v-1q-6 -2 -15 -3t-17 -3t-16 -3.5t-11 -2.5l116 -293q47 -122 64 -176l12 -39q6 -20 13 -41l27 -87l26 -83q1 1 5 1l47 -47q83 19 148 30.5t114 15.5q5 15 11 35.5t11 35.5q11 33 20 66l20 66q25 74 49 121 q18 -44 39 -84h-1q55 -126 64 -202h6l47 -47h47l135 48q53 18 66 22q18 48 41 119.5t51 168.5q87 302 86 301l-10 29l-46 45z" />
<glyph unicode="x" horiz-adv-x="805" d="M754 -87q-4 -26 -70 -61q-52 -27 -108 -43q-90 126 -162 196q-10 -8 -39 -35l-76 -76q-71 -68 -82 -68t-66 18l-93 32v26q0 11 81 134q82 122 82 133q0 8 -50 88l-51 79q-19 32 -27 48q-13 23 -10 63q37 18 159 99q72 -61 140 -156q43 34 129 156q31 -4 61 -7l62 -6 q87 -9 120 -22v-28q0 -12 -61 -88l-102 -126q-25 -32 -25 -55q0 -20 89 -159q83 -126 99 -142zM342 473l-2 1q-23 28 -47 52l-49 45l-113 -73q-45 -28 -68 -39q0 -2 -0.5 -6.5t-0.5 -8.5v-12q0 -17 3.5 -31t9.5 -26q8 -17 28 -48l51 -81q47 -76 47 -77q0 -4 -79 -122 q-84 -128 -84 -145v-46q5 0 7 -1l46 -46l15 -3q16 -2 30 -7l25 -9l34 -12q58 -19 72 -19q18 0 94 73l97 97q50 -60 110 -143q1 1 4 1l47 -47q35 10 66 21.5t57 25.5q73 38 79 73l-5 15l-1 1q-8 9 -32 43l-64 95q-86 134 -86 150q0 18 20 44h1l102 126q65 80 65 99v40l-47 47 v5q-24 10 -58.5 16.5t-79.5 11.5l-67 6q-36 4 -67 8q-68 -97 -114 -145q-11 14 -23 26t-23 25z" />
<glyph unicode="y" horiz-adv-x="795" d="M770 740q0 -8 -40 -100l-38 -85l-32 -70q-7 -16 -16.5 -40t-20.5 -58l-39 -108q-19 -48 -47 -110l-66 -141q-91 -187 -110 -187q-5 0 -69 14q-34 8 -57 12.5t-36 6.5v35l118 276l-285 564q19 19 36 19h192q86 -173 165 -301q53 60 95 156l69 168q33 -5 55 -8t33 -5 q25 -4 45.5 -9t37.5 -10q10 0 10 -19zM321 735l-44 43q-1 2 -2 5t-2 5h-205q-25 0 -61 -36l288 -567l-116 -270v-59q4 0 7 -1l46 -46q13 -2 42.5 -7.5t63.5 -13.5q31 -7 48.5 -10.5t24.5 -3.5q29 0 125 197l66 141q29 63 48 111l39 108l20 56q9 24 17 41h-1l33 70l38 85 q21 48 31 74.5t10 32.5q0 21 -8 29l-42 41q-4 16 -24 19l-39 10q-21 6 -44 9h1q-11 2 -41.5 6t-63.5 9l-74 -181h-1q-30 -70 -65 -118l-54 102z" />
<glyph unicode="z" horiz-adv-x="673" d="M643 344q0 5 -110 -119q-116 -131 -144 -190q8 -5 67 -5q-6 0 29 -3q21 -3 61 2v-109q1 -35 1 -50q0 -16 0 -12q-36 -5 -86 -9.5t-115 -9.5q-104 -6 -132 -6q-8 0 -26 -4t-26 -4h-130v114q0 65 30 112q13 22 84 99q73 81 132 168q-12 0 -32 -1l-46 -4q-27 -2 -42.5 -3.5 t-19.5 -1.5h-105q1 75 0 165h577q1 -7 6 -25l13 -45q14 -48 14 -59zM66 241h122h3q2 -1 5 -1q-30 -38 -60 -72v1q-40 -43 -63.5 -70.5t-31.5 -41.5h1q-30 -50 -30 -118v-134h6l47 -47h147q5 0 13 1t16 3t14.5 3t8.5 1q29 0 133 6q65 5 115.5 9.5t86.5 9.5l-16 16h31v1v18 q0 15 -1 44v128l-47 47v6l-36 -3q-15 -2 -27 -2h-5l42 53q24 30 56 65q40 45 60 78.5t20 51.5h34q0 13 -15 64q-8 27 -13 46t-7 36l-46 46q-1 2 -1 7h-615q0 -11 0.5 -27t0.5 -30v-49q0 -11 -0.5 -24t-0.5 -27v-48h6z" />
<glyph unicode="&#xaa;" horiz-adv-x="795" d="M491 100q1 22 -18 60q-64 1 -125 -21q-79 -31 -94 -91q60 -32 135 -40q26 -1 51 -1t51 -1v94zM729 -51q0 -32 -6 -63q-11 -46 -30 -50q-11 -1 -30 -4t-47 -10q-55 -13 -64 -12h-51q-2 16 -6.5 36.5t-9.5 46.5q4 6 -14 6q7 0 -80 -32q-86 -33 -157 -33q-107 0 -163 68 q-46 55 -46 136q0 75 67 146q55 61 132 96q17 8 51.5 15t87.5 14q104 13 137 29q-21 35 -63 46q-21 6 -72 6q-74 0 -237 -48h-29v170l105 20l128 22q137 25 156 25q125 0 186 -127q23 -48 34.5 -104.5t12.5 -125.5q1 -61 2 -112q1 -50 3 -92q3 -77 3 -69zM132 275h39 q-52 -31 -93 -77q-38 -40 -55.5 -79.5t-17.5 -80.5q0 -89 51 -149q8 -11 18 -19.5t21 -16.5l26 -26q60 -60 163 -60q77 0 163 34q9 4 17 7l15 6q1 -6 1.5 -12t2.5 -12h6l47 -47h68q16 0 66 12q28 7 47 10t31 4q30 7 42 63q6 31 6 67q0 9 -0.5 14.5t-0.5 12.5q0 6 -0.5 16 t-1.5 27q-2 42 -3 92t-2 111q-1 140 -49 238h-1q-11 24 -24 42.5t-28 34.5l-26 26q-65 86 -172 86q-23 0 -160 -25l-136 -24l-113 -21v-207h6zM440 27h-25q-12 0 -24 1q-22 1 -47 8q20 20 60 37l34 10q16 5 33 7v-64h-6q-7 0 -13 0.5t-12 0.5z" />
<glyph unicode="&#xba;" d="M504 190q0 111 -51 143q-25 16 -65 29q-41 15 -55 15q-49 0 -85 -77q-28 -57 -28 -94q0 -54 36 -115q47 -80 118 -80q64 0 100 62q30 51 30 117zM715 162q0 -47 -20 -98q-15 -38 -56 -107q-39 -65 -151 -102q-89 -30 -163 -30q-27 0 -49.5 2.5t-42.5 7.5t-39 13.5 t-40 20.5q-54 33 -70 64q-11 23 -23 56t-24 78q-21 78 -21 99q0 48 19 130q23 102 50 121l63 47l62 46q67 46 131 46q181 0 285 -131q89 -113 89 -263zM142 -155q11 -11 23.5 -21t29.5 -20q21 -12 41 -21t41 -14.5t45 -8t53 -2.5q79 0 168 31q119 40 161 109q40 65 57 110 q21 51 21 104q0 157 -93 274q-12 16 -29 33l-19 19q-110 138 -300 138q-71 0 -143 -50l-62 -46l-63 -47q-34 -24 -58 -132q-19 -82 -19 -135q0 -23 22 -104q13 -47 25 -81t23 -57q16 -32 57 -60zM484 190q0 -59 -28 -106q-32 -53 -82 -53q-28 0 -52 15q0 3 -1 4 q-34 56 -34 106q0 16 6 38t20 49q32 67 70 67q9 0 49 -14q11 -5 20.5 -8t17.5 -6q14 -34 14 -92z" />
<glyph unicode="&#x152;" horiz-adv-x="1556" d="M1274 356q1 43 -49 69q-39 21 -80 21q-7 0 -17.5 -3.5t-22 -8.5t-22 -11.5t-17.5 -12.5q-23 -19 -43 -42t-37 -51q-6 -21 13 -21q8 0 42.5 1t96.5 3q43 1 76.5 0.5t59.5 -2.5v58zM1464 1q0 -47 -12 -71l-49 -32l-27 -18q-24 -14 -46.5 -23.5t-42.5 -14.5 q-79 -17 -138 -17q-9 0 -49 9q-22 5 -36.5 7.5t-21.5 3.5q-119 14 -197 123q-66 91 -66 186q0 8 6 35q7 27 7 40q0 151 125 249q112 86 244 86q20 0 79 -17q64 -20 79 -35q8 -8 17 -16l18 -16q13 -12 21.5 -23t13.5 -21q22 -45 45 -115q22 -66 22 -84t-10 -27l-426 -24 q-5 -5 -5 -20q0 -22 34 -83q40 -70 73 -70h73q94 0 258 54q11 -19 11 -66zM1114 41q-32 55 -32 75v3l421 24q20 17 20 44q0 9 -5.5 31.5t-17.5 57.5q-12 36 -23.5 65t-22.5 52q-5 11 -12.5 21.5t-18.5 21.5l-28 28q-11 15 -27 30q-2 2 -3.5 2.5t-3.5 2.5l-6 6q-6 5 -11 11 l-11 10q-19 19 -87 40q-60 18 -85 18q-140 0 -256 -91q-133 -103 -133 -264q0 -8 -7 -35q-6 -27 -6 -40q0 -101 70 -198q34 -48 73 -77l19 -19q71 -72 169 -82q5 -1 19 -3.5t37 -7.5q40 -9 53 -9q33 0 68.5 4.5t73.5 12.5q44 11 94 40l29 19l51 34q16 31 16 83t-20 86 l-42 41q-2 3 -3 6.5t-3 6.5q-175 -58 -268 -58h-73h-4q-3 4 -4 8zM1196 321h-27q-8 0 -16 -0.5t-16 -0.5q-11 -1 -21.5 -1.5t-20.5 -0.5q8 8 16 15l16 14q6 5 15.5 11t19 10.5t18.5 7.5t15 3q31 0 58 -13q1 -2 1 -8v-39q-15 1 -29.5 1.5t-28.5 0.5zM504 190q0 111 -51 143 q-25 16 -65 29q-41 15 -55 15q-49 0 -85 -77q-28 -57 -28 -94q0 -54 36 -115q47 -80 118 -80q64 0 100 62q30 51 30 117zM715 162q0 -47 -20 -98q-15 -38 -56 -107q-39 -65 -151 -102q-89 -30 -163 -30q-27 0 -49.5 2.5t-42.5 7.5t-39 13.5t-40 20.5q-54 33 -70 64 q-11 23 -23 56t-24 78q-21 78 -21 99q0 48 19 130q23 102 50 121l63 47l62 46q67 46 131 46q181 0 285 -131q89 -113 89 -263zM142 -155q11 -11 23.5 -21t29.5 -20q21 -12 41 -21t41 -14.5t45 -8t53 -2.5q79 0 168 31q119 40 161 109q40 65 57 110q21 51 21 104 q0 157 -93 274q-12 16 -29 33l-19 19q-110 138 -300 138q-71 0 -143 -50l-62 -46l-63 -47q-34 -24 -58 -132q-19 -82 -19 -135q0 -23 22 -104q13 -47 25 -81t23 -57q16 -32 57 -60zM484 190q0 -59 -28 -106q-32 -53 -82 -53q-28 0 -52 15q0 3 -1 4q-34 56 -34 106q0 16 6 38 t20 49q32 67 70 67q9 0 49 -14q11 -5 20.5 -8t17.5 -6q14 -34 14 -92z" />
<glyph unicode="&#x153;" horiz-adv-x="1556" d="M1274 356q1 43 -49 69q-39 21 -80 21q-7 0 -17.5 -3.5t-22 -8.5t-22 -11.5t-17.5 -12.5q-23 -19 -43 -42t-37 -51q-6 -21 13 -21q8 0 42.5 1t96.5 3q43 1 76.5 0.5t59.5 -2.5v58zM1464 1q0 -47 -12 -71l-49 -32l-27 -18q-24 -14 -46.5 -23.5t-42.5 -14.5 q-79 -17 -138 -17q-9 0 -49 9q-22 5 -36.5 7.5t-21.5 3.5q-119 14 -197 123q-66 91 -66 186q0 8 6 35q7 27 7 40q0 151 125 249q112 86 244 86q20 0 79 -17q64 -20 79 -35q8 -8 17 -16l18 -16q13 -12 21.5 -23t13.5 -21q22 -45 45 -115q22 -66 22 -84t-10 -27l-426 -24 q-5 -5 -5 -20q0 -22 34 -83q40 -70 73 -70h73q94 0 258 54q11 -19 11 -66zM1114 41q-32 55 -32 75v3l421 24q20 17 20 44q0 9 -5.5 31.5t-17.5 57.5q-12 36 -23.5 65t-22.5 52q-5 11 -12.5 21.5t-18.5 21.5l-28 28q-11 15 -27 30q-2 2 -3.5 2.5t-3.5 2.5l-6 6q-6 5 -11 11 l-11 10q-19 19 -87 40q-60 18 -85 18q-140 0 -256 -91q-133 -103 -133 -264q0 -8 -7 -35q-6 -27 -6 -40q0 -101 70 -198q34 -48 73 -77l19 -19q71 -72 169 -82q5 -1 19 -3.5t37 -7.5q40 -9 53 -9q33 0 68.5 4.5t73.5 12.5q44 11 94 40l29 19l51 34q16 31 16 83t-20 86 l-42 41q-2 3 -3 6.5t-3 6.5q-175 -58 -268 -58h-73h-4q-3 4 -4 8zM1196 321h-27q-8 0 -16 -0.5t-16 -0.5q-11 -1 -21.5 -1.5t-20.5 -0.5q8 8 16 15l16 14q6 5 15.5 11t19 10.5t18.5 7.5t15 3q31 0 58 -13q1 -2 1 -8v-39q-15 1 -29.5 1.5t-28.5 0.5zM504 190q0 111 -51 143 q-25 16 -65 29q-41 15 -55 15q-49 0 -85 -77q-28 -57 -28 -94q0 -54 36 -115q47 -80 118 -80q64 0 100 62q30 51 30 117zM715 162q0 -47 -20 -98q-15 -38 -56 -107q-39 -65 -151 -102q-89 -30 -163 -30q-27 0 -49.5 2.5t-42.5 7.5t-39 13.5t-40 20.5q-54 33 -70 64 q-11 23 -23 56t-24 78q-21 78 -21 99q0 48 19 130q23 102 50 121l63 47l62 46q67 46 131 46q181 0 285 -131q89 -113 89 -263zM142 -155q11 -11 23.5 -21t29.5 -20q21 -12 41 -21t41 -14.5t45 -8t53 -2.5q79 0 168 31q119 40 161 109q40 65 57 110q21 51 21 104 q0 157 -93 274q-12 16 -29 33l-19 19q-110 138 -300 138q-71 0 -143 -50l-62 -46l-63 -47q-34 -24 -58 -132q-19 -82 -19 -135q0 -23 22 -104q13 -47 25 -81t23 -57q16 -32 57 -60zM484 190q0 -59 -28 -106q-32 -53 -82 -53q-28 0 -52 15q0 3 -1 4q-34 56 -34 106q0 16 6 38 t20 49q32 67 70 67q9 0 49 -14q11 -5 20.5 -8t17.5 -6q14 -34 14 -92z" />
<glyph unicode="&#x2013;" horiz-adv-x="500" d="M100 250v100h300v-100h-300z" />
<glyph unicode="&#x2014;" horiz-adv-x="1000" d="M100 250v100h800v-100h-800z" />
<glyph unicode="&#x2122;" horiz-adv-x="1768" d="M1717 -123q-4 -1 -22 -16q-13 -10 -23 -10q-5 0 -22 1t-46 3t-45 3t-20 1h-61q-3 94 -3 157q0 22 0.5 42.5t1 35.5t1.5 24v8q0 219 -95 219q-29 0 -65 -30t-36 -48q0 -4 -0.5 -12t-1.5 -18v-19q-1 -10 -1 -17l-1 -357h-246v232q-1 29 -8 78.5t-20 119.5q-3 14 -22 36 q-23 27 -41 27q-81 0 -118 -60q-27 -44 -32 -127q-2 -29 -3 -58l-2 -57q-1 -12 6 -46q8 -37 8 -42v-113l-58 2l-58 2q-62 2 -97 -3q-4 94 -2 172.5t9 143.5l10 376q25 -16 72 -16q13 0 123 15q2 -39 -7 -60q4 -4 6.5 -10.5t6.5 -10.5l111 63q69 36 136 36q61 0 93 -29 q32 -28 73 -120q109 94 144 117q64 40 141 40q79 0 114 -29q38 -34 56 -106q8 -32 15.5 -76.5t15.5 -101.5q7 -49 10 -79t3 -41v-242zM1678 486l-21 21q-11 17 -27 31q-40 34 -127 34q-84 0 -152 -43q-14 -8 -41 -31l-71 -59q-12 18 -25 32l-31 31l-13 16q-6 7 -12 12 q-37 34 -106 34q-71 0 -145 -38l-46 -26l-42 43v6q-131 -18 -143 -18q-42 0 -91 32l-11 -410q-9 -87 -9 -202q0 -28 0.5 -67.5t2.5 -70.5q2 0 2.5 0.5t2.5 0.5l48 -48q22 2 43 3.5t41 1.5h28q14 -1 29 -1t29 -1t37.5 -1.5t38.5 -0.5v130q0 7 -2 18t-6 28q-6 28 -6 37v5l2 57 q1 28 3 57q2 39 9 69t20 50q28 49 97 52q13 -70 20 -118.5t8 -75.5v-252h6l47 -47h280l1 374q0 8 0.5 18t1.5 21q1 8 1 15v12q0 9 30 35q32 26 54 26h5q20 -52 20 -155h6l18 -18q-5 -8 -9 -18q-7 -14 -12.5 -32.5t-5.5 -38.5q0 -32 1 -80.5t3 -96.5h6l47 -47h77q4 0 19 -1 l45 -3q29 -2 46.5 -3t22.5 -1q15 0 33 14q7 5 11 8.5t6 4.5l12 16v242q0 12 -3 42.5t-10 79.5q-13 107 -32 180h1q-18 69 -54 107l-3 2q-2 2 -2.5 3t-2.5 3zM479 -142q-123 -41 -156 -41q-114 0 -158 104q-17 42 -37 189q-1 4 -0.5 11t1.5 18t1.5 17.5t0.5 9.5v28q0 18 1 44 q1 23 1 42v33q-1 21 -1.5 40.5t-2.5 37.5q-2 -2 -2 -6q0 -3 -1 -7.5t-3.5 -7.5t-8.5 -3q-37 0 -55 8l-34 -16q-11 46 -11 65q0 7 3 24q1 7 1.5 13t-0.5 13q7 10 7 26q8 -2 20 -4t28 -4q34 -3 48 -7q2 2 4 5.5t6 8.5q2 3 -1.5 7.5t-3.5 14.5v151q28 10 83 18q24 4 40 5.5 t24 1.5h49q4 -28 3 -80q-3 -92 -3 -87q29 -11 124 1q1 -32 1.5 -74.5t0.5 -96.5q-23 1 -49 -1t-54 -7q-8 -60 -6 -225q0 -107 70 -107q7 0 33 3q23 4 37 4v-169zM406 77v52q0 54 1 93t3 65q20 4 38 5t35 1h32v56q0 30 -1 58v53q-1 24 -1 40l-47 47v6q-23 -3 -42 -5t-34 -3 q1 5 1 10t1 11v26q0 19 -1.5 37t-3.5 35l-46 46q-1 2 -1 7h-67q-10 0 -26.5 -1.5t-40.5 -5.5q-55 -7 -100 -24v-165q0 -9 1 -13q-7 1 -15 2t-17 2h-9v1h-2q-14 2 -27 4.5t-32 9.5q0 -36 -7 -46v-15v-6q0 -3 -1 -8v-1q-3 -18 -3 -27q0 -23 17 -93l4 2l48 -48l46 22q2 -2 4 -2 v-31q0 -16 -1 -36q-1 -26 -1 -44v-28v-3q0 -2 -0.5 -4t-0.5 -5v-6q0 -2 -0.5 -4.5t-0.5 -4.5v-4q-1 -6 -1 -11v-9v-7q10 -76 19.5 -124t18.5 -71q24 -55 66 -85l29 -29q49 -49 132 -49q36 0 161 42l12 16v186l-47 47v6q-17 0 -33 -1t-29 -3v-1q-12 -2 -19 -2h-9h-1 q-1 8 -1.5 17t-0.5 20z" />
<glyph unicode="&#xe000;" horiz-adv-x="570" d="M0 570h570v-570h-570v570z" />
<glyph unicode="&#xfb01;" horiz-adv-x="947" d="M899 -110q-22 -8 -72.5 -22t-131.5 -34q1 37 1.5 74t1.5 75q1 90 -3 154q-15 223 -33 360q27 7 99 15q39 5 67.5 9t45.5 8zM891 571q-20 3 -55 3q-12 0 -27 -0.5t-33 -1.5q-17 -1 -27 -1.5t-12 -0.5q-83 0 -83 36v137q39 -4 67.5 -5.5t46.5 -1.5q66 0 105 16l18 -18v-163 zM958 691l-47 47v4l-34 34q-50 -20 -109 -20q-34 0 -134 9v-159q0 -30 28 -43l37 -37q0 -1 1 -2q-17 -2 -31.5 -5.5t-28.5 -7.5q9 -69 18 -166t17 -209q3 -48 3 -110v-43q0 -18 -0.5 -39.5t-0.5 -43.5q-1 -23 -1 -47q0 -25 -1 -44l2 1q1 0 3 1l48 -48l152 39q58 15 75 22 l11 17l-26 659l-5 4h3l20 17v170zM576 774q0 -12 -1 -31.5t-3 -47.5q-3 -56 -3 -80l-20 -18q-17 10 -45 21q-30 11 -45 11q-32 0 -61 -32q-24 -29 -24 -53q0 -12 3.5 -16t3.5 -6q43 -15 79 -15h25q8 -1 14 -1h12q8 -44 12.5 -75.5t4.5 -51.5q-17 -24 -51 -24h-28 q-38 0 -59 -24v-492q-156 -6 -234 0v498q-7 1 -38 1h-88q5 84 8 130t3 54q31 9 107 9q27 175 100 224q52 37 203 37q7 0 54 -9q48 -9 71 -9zM577 794q-20 0 -68 9q-47 9 -58 9q-157 0 -222 -46q-69 -53 -98 -215q-35 -1 -62 -4.5t-48 -9.5q0 -8 -2 -52.5t-7 -110.5 q-1 -5 -1 -13t-1 -16q-1 -7 -1.5 -14.5t-0.5 -12.5h6l47 -47h75v-451h6l47 -47q20 -2 52.5 -3t61.5 -1t72 1t82 3v501q16 14 42 14h28q44 0 68 35q0 25 -5 62t-15 88l-46 45q0 2 -0.5 4t-0.5 4h-22q-11 0 -19 1h-27h-7q2 3 8 9q24 26 48 26q11 0 39 -10q15 -5 28 -11.5 t25 -14.5l35 31q0 13 0.5 36t2.5 51t3 47.5t1 32.5l-47 47v4z" />
<glyph unicode="&#xfb02;" horiz-adv-x="925" d="M871 -143q-60 -4 -185 -24l-9 627q-16 92 -16 149q0 3 1 18l3 43l3 48q2 20 2 34q32 8 82 15.5t119 15.5v-926zM719 -237q146 23 203 27l16 17v945l-47 47v6q-80 -8 -139.5 -17.5t-101.5 -20.5q0 -23 -2 -45l-3 -51q-2 -28 -3 -43.5t-1 -18.5q0 -62 16 -154l9 -645 q1 1 2 0.5t3 0.5zM576 774q0 -12 -1 -31.5t-3 -47.5q-3 -56 -3 -80l-20 -18q-17 10 -45 21q-30 11 -45 11q-32 0 -61 -32q-24 -29 -24 -53q0 -12 3.5 -16t3.5 -6q43 -15 79 -15h25q8 -1 14 -1h12q8 -44 12.5 -75.5t4.5 -51.5q-17 -24 -51 -24h-28q-38 0 -59 -24v-492 q-156 -6 -234 0v498q-7 1 -38 1h-88q5 84 8 130t3 54q31 9 107 9q27 175 100 224q52 37 203 37q7 0 54 -9q48 -9 71 -9zM577 794q-20 0 -68 9q-47 9 -58 9q-157 0 -222 -46q-69 -53 -98 -215q-35 -1 -62 -4.5t-48 -9.5q0 -8 -2 -52.5t-7 -110.5q-1 -5 -1 -13t-1 -16 q-1 -7 -1.5 -14.5t-0.5 -12.5h6l47 -47h75v-451h6l47 -47q20 -2 52.5 -3t61.5 -1t72 1t82 3v501q16 14 42 14h28q44 0 68 35q0 25 -5 62t-15 88l-46 45q0 2 -0.5 4t-0.5 4h-22q-11 0 -19 1h-27h-7q2 3 8 9q24 26 48 26q11 0 39 -10q15 -5 28 -11.5t25 -14.5l35 31 q0 13 0.5 36t2.5 51t3 47.5t1 32.5l-47 47v4z" />
<glyph unicode="&#xfb03;" horiz-adv-x="1561" d="M1513 -110q-22 -8 -72.5 -22t-131.5 -34q1 37 1.5 74t1.5 75q1 90 -3 154q-15 223 -33 360q27 7 99 15q39 5 67.5 9t45.5 8zM1505 571q-20 3 -55 3q-12 0 -27 -0.5t-33 -1.5q-17 -1 -27 -1.5t-12 -0.5q-83 0 -83 36v137q39 -4 67.5 -5.5t46.5 -1.5q66 0 105 16l18 -18 v-163zM1572 691l-47 47v4l-34 34q-50 -20 -109 -20q-34 0 -134 9v-159q0 -30 28 -43l37 -37q0 -1 1 -2q-17 -2 -31.5 -5.5t-28.5 -7.5q9 -69 18 -166t17 -209q3 -48 3 -110v-43q0 -18 -0.5 -39.5t-0.5 -43.5q-1 -23 -1 -47q0 -25 -1 -44l2 1q1 0 3 1l48 -48l152 39 q58 15 75 22l11 17l-26 659l-5 4h3l20 17v170zM1190 774q0 -12 -1 -31.5t-3 -47.5q-3 -56 -3 -80l-20 -18q-17 10 -45 21q-30 11 -45 11q-32 0 -61 -32q-24 -29 -24 -53q0 -12 3.5 -16t3.5 -6q43 -15 79 -15h25q8 -1 14 -1h12q8 -44 12.5 -75.5t4.5 -51.5q-17 -24 -51 -24 h-28q-38 0 -59 -24v-492q-156 -6 -234 0v498q-7 1 -38 1h-88q5 84 8 130t3 54q31 9 107 9q27 175 100 224q52 37 203 37q7 0 54 -9q48 -9 71 -9zM1191 794q-20 0 -68 9q-47 9 -58 9q-157 0 -222 -46q-69 -53 -98 -215q-35 -1 -62 -4.5t-48 -9.5q0 -8 -2 -52.5t-7 -110.5 q-1 -5 -1 -13t-1 -16q-1 -7 -1.5 -14.5t-0.5 -12.5h6l47 -47h75v-451h6l47 -47q20 -2 52.5 -3t61.5 -1t72 1t82 3v501q16 14 42 14h28q44 0 68 35q0 25 -5 62t-15 88l-46 45q0 2 -0.5 4t-0.5 4h-22q-11 0 -19 1h-27h-7q2 3 8 9q24 26 48 26q11 0 39 -10q15 -5 28 -11.5 t25 -14.5l35 31q0 13 0.5 36t2.5 51t3 47.5t1 32.5l-47 47v4zM576 774q0 -12 -1 -31.5t-3 -47.5q-3 -56 -3 -80l-20 -18q-17 10 -45 21q-30 11 -45 11q-32 0 -61 -32q-24 -29 -24 -53q0 -12 3.5 -16t3.5 -6q43 -15 79 -15h25q8 -1 14 -1h12q8 -44 12.5 -75.5t4.5 -51.5 q-17 -24 -51 -24h-28q-38 0 -59 -24v-492q-156 -6 -234 0v498q-7 1 -38 1h-88q5 84 8 130t3 54q31 9 107 9q27 175 100 224q52 37 203 37q7 0 54 -9q48 -9 71 -9zM577 794q-20 0 -68 9q-47 9 -58 9q-157 0 -222 -46q-69 -53 -98 -215q-35 -1 -62 -4.5t-48 -9.5 q0 -8 -2 -52.5t-7 -110.5q-1 -5 -1 -13t-1 -16q-1 -7 -1.5 -14.5t-0.5 -12.5h6l47 -47h75v-451h6l47 -47q20 -2 52.5 -3t61.5 -1t72 1t82 3v501q16 14 42 14h28q44 0 68 35q0 25 -5 62t-15 88l-46 45q0 2 -0.5 4t-0.5 4h-22q-11 0 -19 1h-27h-7q2 3 8 9q24 26 48 26 q11 0 39 -10q15 -5 28 -11.5t25 -14.5l35 31q0 13 0.5 36t2.5 51t3 47.5t1 32.5l-47 47v4z" />
<glyph unicode="&#xfb04;" horiz-adv-x="1539" d="M1485 -143q-60 -4 -185 -24l-9 627q-16 92 -16 149q0 3 1 18l3 43l3 48q2 20 2 34q32 8 82 15.5t119 15.5v-926zM1333 -237q146 23 203 27l16 17v945l-47 47v6q-80 -8 -139.5 -17.5t-101.5 -20.5q0 -23 -2 -45l-3 -51q-2 -28 -3 -43.5t-1 -18.5q0 -62 16 -154l9 -645 q1 1 2 0.5t3 0.5zM1190 774q0 -12 -1 -31.5t-3 -47.5q-3 -56 -3 -80l-20 -18q-17 10 -45 21q-30 11 -45 11q-32 0 -61 -32q-24 -29 -24 -53q0 -12 3.5 -16t3.5 -6q43 -15 79 -15h25q8 -1 14 -1h12q8 -44 12.5 -75.5t4.5 -51.5q-17 -24 -51 -24h-28q-38 0 -59 -24v-492 q-156 -6 -234 0v498q-7 1 -38 1h-88q5 84 8 130t3 54q31 9 107 9q27 175 100 224q52 37 203 37q7 0 54 -9q48 -9 71 -9zM1191 794q-20 0 -68 9q-47 9 -58 9q-157 0 -222 -46q-69 -53 -98 -215q-35 -1 -62 -4.5t-48 -9.5q0 -8 -2 -52.5t-7 -110.5q-1 -5 -1 -13t-1 -16 q-1 -7 -1.5 -14.5t-0.5 -12.5h6l47 -47h75v-451h6l47 -47q20 -2 52.5 -3t61.5 -1t72 1t82 3v501q16 14 42 14h28q44 0 68 35q0 25 -5 62t-15 88l-46 45q0 2 -0.5 4t-0.5 4h-22q-11 0 -19 1h-27h-7q2 3 8 9q24 26 48 26q11 0 39 -10q15 -5 28 -11.5t25 -14.5l35 31 q0 13 0.5 36t2.5 51t3 47.5t1 32.5l-47 47v4zM576 774q0 -12 -1 -31.5t-3 -47.5q-3 -56 -3 -80l-20 -18q-17 10 -45 21q-30 11 -45 11q-32 0 -61 -32q-24 -29 -24 -53q0 -12 3.5 -16t3.5 -6q43 -15 79 -15h25q8 -1 14 -1h12q8 -44 12.5 -75.5t4.5 -51.5q-17 -24 -51 -24h-28 q-38 0 -59 -24v-492q-156 -6 -234 0v498q-7 1 -38 1h-88q5 84 8 130t3 54q31 9 107 9q27 175 100 224q52 37 203 37q7 0 54 -9q48 -9 71 -9zM577 794q-20 0 -68 9q-47 9 -58 9q-157 0 -222 -46q-69 -53 -98 -215q-35 -1 -62 -4.5t-48 -9.5q0 -8 -2 -52.5t-7 -110.5 q-1 -5 -1 -13t-1 -16q-1 -7 -1.5 -14.5t-0.5 -12.5h6l47 -47h75v-451h6l47 -47q20 -2 52.5 -3t61.5 -1t72 1t82 3v501q16 14 42 14h28q44 0 68 35q0 25 -5 62t-15 88l-46 45q0 2 -0.5 4t-0.5 4h-22q-11 0 -19 1h-27h-7q2 3 8 9q24 26 48 26q11 0 39 -10q15 -5 28 -11.5 t25 -14.5l35 31q0 13 0.5 36t2.5 51t3 47.5t1 32.5l-47 47v4z" />
</font>
</defs>
</svg>
