<?xml version="1.0" standalone="no"?>
<!DOCTYPE svg PUBLIC "-//W3C//DTD SVG 1.1//EN" "http://www.w3.org/Graphics/SVG/1.1/DTD/svg11.dtd" >
<svg xmlns="http://www.w3.org/2000/svg">
<metadata>
This is a custom SVG webfont generated by Font Squirrel.
Copyright   :  2008 Bernd Montag  feel free to distribute  feel free to use personal and commercial  read attached textfile for restrictions
</metadata>
<defs>
<font id="SansationLight" horiz-adv-x="405" >
<font-face units-per-em="2048" ascent="1638" descent="-410" />
<missing-glyph horiz-adv-x="485" />
<glyph unicode=" "  horiz-adv-x="485" />
<glyph unicode="&#x09;" horiz-adv-x="485" />
<glyph unicode="&#xa0;" horiz-adv-x="485" />
<glyph unicode="!" d="M150 0v105h105v-105h-105zM150 370v1060h105v-1060h-105z" />
<glyph unicode="&#x22;" horiz-adv-x="605" d="M100 1430h115l-30 -435h-55zM390 1430h115l-30 -435h-55z" />
<glyph unicode="#" horiz-adv-x="1883" d="M100 374l20 94h392l109 438h-401l20 94h402l110 425h100l-110 -425h458l112 430h100l-111 -430h482l-20 -94h-482l-109 -438h491l-20 -94h-492l-100 -379h-100l100 379h-458l-100 -379h-100l99 379h-392zM613 468h457l110 438h-457z" />
<glyph unicode="$" horiz-adv-x="1050" d="M100 940q0 280 390 300v190h95v-190q190 -10 315 -50v-100q-175 60 -343 60q-352 0 -352 -210q0 -170 245 -170h150q350 0 350 -280t-365 -300v-190h-95v190q-215 10 -340 50v100q175 -60 364 -60q311 0 311 210q0 170 -225 170h-150q-350 0 -350 280z" />
<glyph unicode="%" horiz-adv-x="1342" d="M100 0l1017 1430h125l-1017 -1430h-125zM100 1180q0 260 278 260q274 0 274 -260q0 -259 -274 -259q-278 0 -278 259zM200 1182q0 -177 178 -177q174 0 174 177q0 174 -174 174q-178 0 -178 -174zM690 249q0 260 278 260q274 0 274 -260q0 -259 -274 -259 q-278 0 -278 259zM790 251q0 -177 178 -177q174 0 174 177q0 174 -174 174q-178 0 -178 -174z" />
<glyph unicode="&#x26;" horiz-adv-x="1275" d="M100 394q0 247 223 333q-223 65 -223 318q0 385 510 385q185 0 360 -50v-90q-185 50 -357 50q-408 0 -408 -290q0 -280 335 -280h468v172h73l22 -172h172v-90h-162v-190q0 -493 -518 -493q-495 0 -495 397zM205 399q0 -309 381 -309q422 0 422 402v188h-466 q-337 0 -337 -281z" />
<glyph unicode="'" horiz-adv-x="315" d="M100 1430h115l-30 -435h-55z" />
<glyph unicode="(" horiz-adv-x="480" d="M100 525q0 453 200 905h105q-200 -452 -200 -905t200 -905h-105q-200 452 -200 905z" />
<glyph unicode=")" horiz-adv-x="480" d="M75 -380q200 452 200 905t-200 905h105q200 -452 200 -905t-200 -905h-105z" />
<glyph unicode="*" horiz-adv-x="810" d="M100 1150l48 150l211 -103l-31 233h156l-30 -232l209 101l48 -147l-228 -43l159 -170l-123 -92l-113 205l-113 -204l-124 89l161 171z" />
<glyph unicode="+" horiz-adv-x="950" d="M100 480v90h330v330h100v-330h320v-90h-320v-330h-100v330h-330z" />
<glyph unicode="," horiz-adv-x="455" d="M100 -250l150 435h105l-150 -435h-105z" />
<glyph unicode="-" horiz-adv-x="700" d="M100 480v90h500v-90h-500z" />
<glyph unicode="." horiz-adv-x="335" d="M100 0v125h135v-125h-135z" />
<glyph unicode="/" horiz-adv-x="965" d="M25 0l725 1430h115l-725 -1430h-115z" />
<glyph unicode="0" horiz-adv-x="1375" d="M75 713q0 727 618 727q607 0 607 -727q0 -723 -607 -723q-586 0 -618 723zM190 719q0 -639 503 -639q492 0 492 639q0 631 -492 631q-503 0 -503 -631z" />
<glyph unicode="1" horiz-adv-x="585" d="M100 1301v59l255 70v-1430h-105v1301h-150z" />
<glyph unicode="2" horiz-adv-x="1180" d="M100 0v90q875 607 875 930q0 330 -420 330q-220 0 -415 -110v100q195 100 415 100q525 0 525 -420q0 -370 -824 -930h824v-90h-980z" />
<glyph unicode="3" horiz-adv-x="1115" d="M100 50v100q200 -70 400 -70q410 0 410 320q0 280 -332 280h-328v90h325q335 0 335 280q0 300 -410 300q-200 0 -400 -70v100q200 60 400 60q515 0 515 -390q0 -256 -238 -325q238 -65 238 -325q0 -410 -515 -410q-200 0 -400 60z" />
<glyph unicode="4" horiz-adv-x="1125" d="M75 420v90l395 920h104l-386 -920h609v588h105v-588l148 -46v-44h-148v-420h-105v420h-722z" />
<glyph unicode="5" horiz-adv-x="1175" d="M100 730l50 700h854v-80h-766l-44 -512q197 22 336 22q570 0 570 -400q0 -470 -550 -470q-230 0 -430 60v100q200 -70 430 -70q445 0 445 380q0 320 -465 320q-235 0 -430 -50z" />
<glyph unicode="6" horiz-adv-x="1240" d="M100 530q0 466 508 943l66 -77q-292 -246 -424 -589q191 63 366 63q524 0 524 -400q0 -480 -553 -480q-487 0 -487 540zM195 546q0 -466 401 -466q443 0 443 390q0 310 -432 310q-204 0 -384 -68q-28 -100 -28 -166z" />
<glyph unicode="7" horiz-adv-x="1125" d="M100 1340v90h950v-90l-572 -1340h-131l592 1340h-839z" />
<glyph unicode="8" horiz-adv-x="1240" d="M100 424q0 243 252 321q-212 85 -212 333q0 366 480 366t480 -366q0 -248 -217 -333q257 -78 257 -321q0 -434 -520 -434t-520 434zM205 418q0 -338 420 -338q410 0 410 338q0 282 -423 282q-407 0 -407 -282zM245 1058q0 -268 380 -268q370 0 370 268q0 292 -383 292 q-367 0 -367 -292z" />
<glyph unicode="9" horiz-adv-x="1190" d="M100 964q0 480 533 480q507 0 507 -540q0 -466 -508 -943l-66 77q312 276 414 579q-203 -93 -386 -93q-494 0 -494 440zM201 964q0 -340 392 -340q264 0 424 119q18 79 18 145q0 466 -411 466q-423 0 -423 -390z" />
<glyph unicode=":" horiz-adv-x="385" d="M100 0v125h135v-125h-135zM100 925v125h135v-125h-135z" />
<glyph unicode=";" horiz-adv-x="525" d="M100 -250l150 435h105l-150 -435h-105zM240 925v125h135v-125h-135z" />
<glyph unicode="&#x3c;" horiz-adv-x="1100" d="M100 470v110l900 420v-110l-813 -369l813 -361v-110z" />
<glyph unicode="=" horiz-adv-x="950" d="M100 330v90h750v-90h-750zM100 630v90h750v-90h-750z" />
<glyph unicode="&#x3e;" horiz-adv-x="1100" d="M100 50v110l813 361l-813 369v110l900 -420v-110z" />
<glyph unicode="?" horiz-adv-x="1115" d="M100 1290v90q210 50 400 50q515 0 515 -390t-497 -390h-123v-280h-105v370h225q395 0 395 300t-410 300q-190 0 -400 -50zM290 0h105v105h-105v-105z" />
<glyph unicode="@" horiz-adv-x="2150" d="M150 540q0 900 924 900q926 0 926 -900q0 -690 -427 -690q-161 0 -161 224q-207 -74 -392 -74q-395 0 -395 327q0 293 426 293q157 0 354 -20v129q0 231 -363 231q-162 0 -332 -50v90q170 50 332 50q468 0 468 -336v-626q0 -148 100 -148q285 0 285 600q0 810 -806 810 q-834 0 -834 -810q0 -830 765 -830v-90q-870 0 -870 920zM730 330q0 -240 290 -240q192 0 385 82v338q-190 20 -354 20q-321 0 -321 -200z" />
<glyph unicode="A" horiz-adv-x="1472" d="M25 0l647 1430h125l650 -1430h-125l-210 480h-608l31 90h537l-344 778l-591 -1348h-112z" />
<glyph unicode="B" horiz-adv-x="1310" d="M150 0v1430h610q408 0 408 -333q0 -244 -296 -349q314 -53 314 -335q0 -413 -447 -413h-589zM255 90h473q346 0 346 320q0 283 -433 283h-80v71q500 45 500 326q0 250 -308 250h-498v-1250z" />
<glyph unicode="C" horiz-adv-x="1385" d="M100 735q0 705 750 705q205 0 400 -60v-90q-195 60 -380 60q-665 0 -665 -615q0 -655 665 -655q185 0 380 60v-90q-195 -60 -400 -60q-750 0 -750 745z" />
<glyph unicode="D" horiz-adv-x="1500" d="M150 0v1430h580q670 0 670 -676q0 -754 -670 -754h-580zM255 90h465q565 0 565 664q0 586 -565 586h-465v-1250z" />
<glyph unicode="E" horiz-adv-x="1228" d="M150 0v1430h939v-90h-834v-570h800v-90h-800v-590h848v-90h-953z" />
<glyph unicode="F" horiz-adv-x="1239" d="M150 0v1430h939v-90h-834v-570h800v-90h-800v-680h-105z" />
<glyph unicode="G" horiz-adv-x="1385" d="M100 735q0 705 750 705q205 0 400 -60v-90q-195 60 -380 60q-665 0 -665 -615q0 -655 646 -655q132 0 294 44v526h105v-594q-183 -66 -383 -66q-767 0 -767 745z" />
<glyph unicode="H" horiz-adv-x="1485" d="M150 0v1430h105v-660h975v660h105v-1430h-105v680h-975v-680h-105z" />
<glyph unicode="I" d="M150 0v1430h105v-1430h-105z" />
<glyph unicode="J" horiz-adv-x="630" d="M25 0v90q350 0 350 322v1018h105v-1018q0 -412 -455 -412z" />
<glyph unicode="K" horiz-adv-x="1263" d="M150 0v1430h105v-1430h-105zM350 698v112l622 620h134l-661 -667l745 -763h-177z" />
<glyph unicode="L" horiz-adv-x="1183" d="M150 0v1430h105v-1340h828v-90h-933z" />
<glyph unicode="M" horiz-adv-x="1750" d="M150 0v1430h105l645 -1307l605 1307h95v-1430h-95v1237l-568 -1237h-86l-606 1247v-1247h-95z" />
<glyph unicode="N" horiz-adv-x="1485" d="M150 0v1430h135l955 -1242v1242h95v-1430h-85l-1005 1312v-1312h-95z" />
<glyph unicode="O" horiz-adv-x="1625" d="M100 713q0 727 718 727q707 0 707 -727q0 -723 -707 -723q-718 0 -718 723zM215 719q0 -639 603 -639q592 0 592 639q0 631 -592 631q-603 0 -603 -631z" />
<glyph unicode="P" horiz-adv-x="1243" d="M150 0v1430h610q408 0 408 -343q0 -387 -569 -479l-28 86q480 75 480 385q0 258 -308 258h-488v-1337h-105z" />
<glyph unicode="Q" horiz-adv-x="1625" d="M100 713q0 727 718 727q707 0 707 -727q0 -598 -535 -716l262 -300l-94 -68l-310 361q-748 0 -748 723zM215 719q0 -629 603 -629q592 0 592 629q0 631 -592 631q-603 0 -603 -631z" />
<glyph unicode="R" horiz-adv-x="1215" d="M150 0v1430h590q388 0 388 -343q0 -297 -421 -421l483 -666h-144l-475 663v71q440 65 440 345q0 258 -288 258h-468v-1337h-105z" />
<glyph unicode="S" horiz-adv-x="1310" d="M70 1020q0 420 575 420q240 0 465 -60v-90q-225 60 -465 60q-470 0 -470 -330q0 -250 294 -250h314q397 0 397 -340q0 -440 -544 -440q-271 0 -496 60v100q225 -70 496 -70q439 0 439 350q0 240 -292 240h-314q-399 0 -399 350z" />
<glyph unicode="T" horiz-adv-x="1075" d="M0 1340v90h1075v-90h-490v-1340h-105v1340h-480z" />
<glyph unicode="U" horiz-adv-x="1450" d="M150 552v878h105v-878q0 -472 470 -472t470 472v878h105v-878q0 -562 -575 -562t-575 562z" />
<glyph unicode="V" horiz-adv-x="1472" d="M25 1430h115l601 -1349l594 1349h112l-627 -1430h-165z" />
<glyph unicode="W" horiz-adv-x="1849" d="M25 1430h99l243 -1329l462 1329h105l475 -1342l275 1342h91l-289 -1430h-152l-452 1306l-453 -1306h-149z" />
<glyph unicode="X" horiz-adv-x="1300" d="M25 0l1125 1430h125l-1125 -1430h-125zM25 1430h125l1125 -1430h-125z" />
<glyph unicode="Y" horiz-adv-x="1230" d="M25 1430h125l463 -830l477 830h115l-536 -930v-500h-105v500z" />
<glyph unicode="Z" horiz-adv-x="1250" d="M125 0v80l894 1260h-874v90h980v-90l-867 -1250h847v-90h-980z" />
<glyph unicode="[" horiz-adv-x="545" d="M150 -380v1810h370v-90h-275v-1630h275v-90h-370z" />
<glyph unicode="\" horiz-adv-x="965" d="M25 1430h115l725 -1430h-115z" />
<glyph unicode="]" horiz-adv-x="545" d="M25 -290h275v1630h-275v90h370v-1810h-370v90z" />
<glyph unicode="^" horiz-adv-x="1050" d="M50 700l400 730h150l400 -730h-110l-369 673l-361 -673h-110z" />
<glyph unicode="_" horiz-adv-x="1050" d="M25 0h1000v-90h-1000v90z" />
<glyph unicode="`" horiz-adv-x="400" d="M0 1355v150l400 -150v-150z" />
<glyph unicode="a" horiz-adv-x="1135" d="M100 317q0 303 446 303q157 0 334 -20v129q0 231 -363 231q-162 0 -332 -50v90q170 50 332 50q468 0 468 -336v-714h-64l-34 74q-207 -74 -392 -74q-395 0 -395 317zM205 320q0 -230 290 -230q192 0 385 82v338q-170 20 -334 20q-341 0 -341 -210z" />
<glyph unicode="b" horiz-adv-x="1188" d="M150 43v1387h105v-430q199 50 335 50q498 0 498 -504q0 -546 -523 -546q-226 0 -415 43zM255 123q171 -29 301 -29q430 0 430 459q0 397 -397 397q-144 0 -334 -54v-773z" />
<glyph unicode="c" horiz-adv-x="1025" d="M100 545q0 505 570 505q150 0 280 -30v-90q-130 30 -260 30q-475 0 -475 -415q0 -455 475 -455q130 0 260 30v-90q-130 -30 -280 -30q-570 0 -570 545z" />
<glyph unicode="d" horiz-adv-x="1190" d="M100 546q0 504 498 504q136 0 337 -50v430h105v-1367q-191 -63 -471 -63q-469 0 -469 546zM212 553q0 -459 387 -459q144 0 336 39v763q-192 54 -336 54q-387 0 -387 -397z" />
<glyph unicode="e" horiz-adv-x="1126" d="M100 537q0 513 503 513q399 0 399 -409q0 -65 -10 -139h-787q0 -412 486 -412q139 0 278 30v-90q-139 -30 -338 -30q-531 0 -531 537zM205 596h688q2 24 2 46q0 320 -322 320q-350 0 -368 -366z" />
<glyph unicode="f" horiz-adv-x="721" d="M150 -5v1106q0 381 392 381q129 0 234 -40v-90q-99 40 -235 40q-286 0 -286 -233v-109h395v-90h-395v-961z" />
<glyph unicode="g" horiz-adv-x="1187" d="M100 531q0 519 525 519q213 0 412 -43v-1007q0 -380 -483 -380q-194 0 -344 50v90q153 -50 346 -50q376 0 376 290v50q-198 -50 -334 -50q-498 0 -498 531zM202 533q0 -433 397 -433q144 0 333 54v778q-175 24 -315 24q-415 0 -415 -423z" />
<glyph unicode="h" horiz-adv-x="1185" d="M150 1430h105v-494q244 114 437 114q343 0 343 -391v-659h-105v702q0 254 -293 254q-159 0 -382 -133v-823h-105v1430z" />
<glyph unicode="i" d="M150 0v1050h105v-1050h-105zM150 1330v100h105v-100h-105z" />
<glyph unicode="j" d="M25 -303q125 85 125 383v970h105v-970q0 -318 -155 -448zM150 1330v100h105v-100h-105z" />
<glyph unicode="k" horiz-adv-x="1101" d="M150 1430h105v-462q193 82 413 82q372 0 372 -303q0 -230 -330 -314l356 -433h-154l-334 435v63q357 41 357 250q0 212 -290 212q-193 0 -390 -94v-866h-105v1430z" />
<glyph unicode="l" d="M150 0v1430h105v-1430h-105z" />
<glyph unicode="m" horiz-adv-x="1805" d="M150 0v1050h75l11 -132q211 132 409 132q188 0 261 -144q191 144 387 144q332 0 332 -349v-701h-105v701q0 255 -248 255q-188 0 -327 -136v-820h-105v718q0 238 -226 238q-196 0 -359 -136v-820h-105z" />
<glyph unicode="n" horiz-adv-x="1185" d="M150 0v1050h75l13 -134q261 134 454 134q343 0 343 -331v-719h-105v722q0 234 -263 234q-189 0 -412 -133v-823h-105z" />
<glyph unicode="o" horiz-adv-x="1200" d="M100 525q0 525 500 525t500 -525q0 -524 -500 -524q-498 0 -500 524zM205 529q0 -439 395 -439t395 439q0 431 -395 431t-395 -431z" />
<glyph unicode="p" horiz-adv-x="1187" d="M150 -380v1387q209 43 432 43q505 0 505 -499q0 -551 -508 -551q-126 0 -324 50v-430h-105zM255 154q189 -54 323 -54q407 0 407 453q0 403 -405 403q-140 0 -325 -24v-778z" />
<glyph unicode="q" horiz-adv-x="1187" d="M100 531q0 519 525 519q213 0 412 -43v-1387h-105v430q-198 -50 -334 -50q-498 0 -498 531zM202 533q0 -433 397 -433q144 0 333 54v778q-175 24 -315 24q-415 0 -415 -423z" />
<glyph unicode="r" horiz-adv-x="560" d="M150 1050h75l13 -134q88 134 282 134v-84q-188 0 -265 -133v-833h-105v1050z" />
<glyph unicode="s" horiz-adv-x="1050" d="M100 750q0 300 437 300q188 0 363 -50v-100q-175 60 -363 60q-332 0 -332 -210q0 -180 225 -180h170q350 0 350 -270q0 -300 -436 -300q-189 0 -364 50v100q175 -60 364 -60q331 0 331 210q0 170 -245 170h-170q-330 0 -330 280z" />
<glyph unicode="t" horiz-adv-x="550" d="M150 283v937h66l20 -170h264v-90h-245v-663q0 -207 157 -207h88v-90h-86q-264 0 -264 283z" />
<glyph unicode="u" horiz-adv-x="1185" d="M150 391v659h105v-662q0 -294 292 -294q159 0 383 133v823h105v-1050h-77l-12 134q-261 -134 -454 -134q-342 0 -342 391z" />
<glyph unicode="v" horiz-adv-x="1010" d="M0 1050h120l384 -959l386 959h120l-447 -1050h-122z" />
<glyph unicode="w" horiz-adv-x="1519" d="M50 1050h107l226 -923l333 923h77l342 -903l231 903h103l-274 -1050h-109l-331 895l-326 -895h-113z" />
<glyph unicode="x" horiz-adv-x="990" d="M25 0l815 1050h125l-815 -1050h-125zM25 1050h125l815 -1050h-125z" />
<glyph unicode="y" horiz-adv-x="1061" d="M25 1050h121l390 -948l384 948h116l-456 -1081q-116 -286 -348 -357l-31 84q182 66 278 288z" />
<glyph unicode="z" horiz-adv-x="990" d="M100 0v90l665 870h-645v90h770v-90l-657 -870h637v-90h-770z" />
<glyph unicode="{" horiz-adv-x="570" d="M100 480v90q210 0 210 382q0 302 130 478h105q-130 -176 -130 -478q0 -352 -190 -427q190 -75 190 -427q0 -302 130 -478h-105q-130 176 -130 478q0 382 -210 382z" />
<glyph unicode="|" d="M150 -380v1810h105v-1810h-105z" />
<glyph unicode="}" horiz-adv-x="570" d="M25 -380q130 176 130 478q0 352 190 427q-190 75 -190 427q0 302 -130 478h105q130 -176 130 -478q0 -382 210 -382v-90q-210 0 -210 -382q0 -302 -130 -478h-105z" />
<glyph unicode="~" horiz-adv-x="950" d="M100 460v90q58 60 162 60q86 0 203 -40t207 -40q109 0 178 60v-90q-58 -60 -162 -60q-86 0 -203 40t-207 40q-109 0 -178 -60z" />
<glyph unicode="&#xa1;" d="M150 -380v1060h105v-1060h-105zM150 945v105h105v-105h-105z" />
<glyph unicode="&#xa2;" horiz-adv-x="1050" d="M100 735q0 451 510 505v190h95v-190q105 0 245 -50v-90q-130 50 -260 50q-485 0 -485 -415q0 -455 485 -455q130 0 260 50v-90q-140 -50 -245 -50v-190h-95v190q-510 42 -510 545z" />
<glyph unicode="&#xa3;" horiz-adv-x="1217" d="M100 -30v92q186 75 186 351q0 117 -77 291t-77 323q0 413 558 413q270 0 427 -100v-120q-158 130 -434 130q-434 0 -434 -321q0 -144 55 -259h446v-90h-414q59 -164 59 -264q0 -137 -64 -298q41 4 85 4q137 0 296 -43q62 -17 122 -17q145 0 283 98v-110 q-120 -84 -284 -84q-94 0 -201 27q-129 33 -246 33q-153 0 -286 -56z" />
<glyph unicode="&#xa4;" horiz-adv-x="1139" d="M100 173l116 120q-57 103 -57 232q0 137 57 231l-116 120l109 112l125 -121q108 68 242 68q124 0 225 -68l128 121l110 -112l-118 -120q58 -83 58 -231q0 -139 -68 -232l128 -120l-110 -112l-128 123q-108 -60 -233 -60q-124 0 -243 60l-116 -123zM322 529 q0 -246 245 -246t245 246q0 244 -245 244t-245 -244z" />
<glyph unicode="&#xa5;" horiz-adv-x="1250" d="M50 1430h125l442 -661l448 661h135l-493 -700h373v-90h-416v-171h416v-90h-416v-379h-105v379h-389v90h389v171h-389v90h347z" />
<glyph unicode="&#xa6;" horiz-adv-x="201" />
<glyph unicode="&#xa7;" horiz-adv-x="1050" d="M100 720q0 148 162 206q-162 50 -162 224q0 290 457 290q168 0 343 -50v-100q-175 60 -343 60q-352 0 -352 -200q0 -170 255 -170h110q380 0 380 -267q0 -160 -165 -214q165 -62 165 -219q0 -290 -436 -290q-189 0 -364 50v100q175 -60 364 -60q331 0 331 200 q0 170 -275 170h-110q-360 0 -360 270zM205 717q0 -179 265 -179h110q265 0 265 166q0 187 -265 187h-110q-265 0 -265 -174z" />
<glyph unicode="&#xa8;" horiz-adv-x="555" d="M0 1280v150h185v-150h-185zM370 1280v150h185v-150h-185z" />
<glyph unicode="&#xa9;" horiz-adv-x="1163" d="M150 1023q0 427 430 427q433 0 433 -427q0 -415 -433 -415q-418 0 -430 415zM223 1025q0 -361 357 -361q360 0 360 361q0 369 -360 369q-357 0 -357 -369zM322 1032q0 -287 289 -287q83 0 154 23v62q-71 -27 -146 -27q-226 0 -226 229q0 213 226 213q75 0 146 -27v62 q-71 23 -154 23q-289 0 -289 -271z" />
<glyph unicode="&#xaa;" horiz-adv-x="402" />
<glyph unicode="&#xab;" horiz-adv-x="849" d="M100 525l258 375h122l-258 -375l258 -375h-122zM419 525l258 375h122l-258 -375l258 -375h-122z" />
<glyph unicode="&#xac;" horiz-adv-x="1395" />
<glyph unicode="&#xad;" horiz-adv-x="636" />
<glyph unicode="&#x2212;" horiz-adv-x="636" />
<glyph unicode="&#xae;" horiz-adv-x="1163" d="M150 1023q0 427 430 427q433 0 433 -427q0 -415 -433 -415q-418 0 -430 415zM223 1025q0 -361 357 -361q360 0 360 361q0 369 -360 369q-357 0 -357 -369zM404 756v536h229q153 0 153 -128q0 -105 -150 -155l184 -253h-91l-171 241v45q154 25 154 119q0 74 -86 74h-153 v-479h-69z" />
<glyph unicode="&#xaf;" horiz-adv-x="360" />
<glyph unicode="&#x2c9;" horiz-adv-x="360" />
<glyph unicode="&#xb0;" horiz-adv-x="752" d="M100 1170q0 260 278 260q274 0 274 -260q0 -259 -274 -259q-278 0 -278 259zM190 1172q0 -187 188 -187q184 0 184 187q0 184 -184 184q-188 0 -188 -184z" />
<glyph unicode="&#xb1;" horiz-adv-x="636" />
<glyph unicode="&#xb2;" horiz-adv-x="300" />
<glyph unicode="&#xb3;" horiz-adv-x="300" />
<glyph unicode="&#xb4;" horiz-adv-x="400" d="M0 1235v90l400 150v-90z" />
<glyph unicode="&#xb5;" horiz-adv-x="1185" d="M150 -380v1430h105v-672q0 -284 312 -284q159 0 363 133v823h105v-1050h-77l-12 134q-241 -134 -414 -134q-184 0 -277 120v-500h-105z" />
<glyph unicode="&#x3bc;" horiz-adv-x="1185" d="M150 -380v1430h105v-672q0 -284 312 -284q159 0 363 133v823h105v-1050h-77l-12 134q-241 -134 -414 -134q-184 0 -277 120v-500h-105z" />
<glyph unicode="&#xb6;" horiz-adv-x="953" d="M0 986q0 444 443 444h510v-90h-150v-1774h-100v1774h-160v-1774h-100v972q-443 0 -443 448z" />
<glyph unicode="&#xb7;" horiz-adv-x="450" d="M100 525q0 125 125 125t125 -125t-125 -125t-125 125z" />
<glyph unicode="&#x2219;" horiz-adv-x="450" d="M100 525q0 125 125 125t125 -125t-125 -125t-125 125z" />
<glyph unicode="&#xb8;" horiz-adv-x="457" d="M0 -284q108 -60 216 -60q148 0 148 95q0 94 -123 94h-153l131 230h95l-81 -152q224 0 224 -172q0 -173 -241 -173q-108 0 -216 50v88z" />
<glyph unicode="&#xb9;" horiz-adv-x="300" />
<glyph unicode="&#xba;" horiz-adv-x="402" />
<glyph unicode="&#xbb;" horiz-adv-x="849" d="M50 150l258 375l-258 375h122l258 -375l-258 -375h-122zM369 150l258 375l-258 375h122l258 -375l-258 -375h-122z" />
<glyph unicode="&#xbc;" horiz-adv-x="786" />
<glyph unicode="&#xbd;" horiz-adv-x="786" />
<glyph unicode="&#xbe;" horiz-adv-x="786" />
<glyph unicode="&#xbf;" horiz-adv-x="1115" d="M100 -240v-90q210 -50 400 -50q515 0 515 390t-497 390h-123v280h-105v-370h225q395 0 395 -300t-410 -300q-190 0 -400 50zM290 945v105h105v-105h-105z" />
<glyph unicode="&#xc0;" horiz-adv-x="1472" d="M25 0l647 1430h125l650 -1430h-125l-210 480h-608l31 90h537l-344 778l-591 -1348h-112zM525 1718v90l400 -150v-90z" />
<glyph unicode="&#xc1;" horiz-adv-x="1472" d="M25 0l647 1430h125l650 -1430h-125l-210 480h-608l31 90h537l-344 778l-591 -1348h-112zM525 1568v90l400 150v-90z" />
<glyph unicode="&#xc2;" horiz-adv-x="1472" d="M25 0l647 1430h125l650 -1430h-125l-210 480h-608l31 90h537l-344 778l-591 -1348h-112zM483 1574l195 260h110l195 -260h-100l-152 194l-148 -194h-100z" />
<glyph unicode="&#xc3;" horiz-adv-x="1472" d="M25 0l647 1430h125l650 -1430h-125l-210 480h-608l31 90h537l-344 778l-591 -1348h-112zM488 1649v90q60 46 130 46q52 0 110 -26t114 -26q75 0 146 46v-90q-60 -46 -130 -46q-52 0 -110 26t-114 26q-75 0 -146 -46z" />
<glyph unicode="&#xc4;" horiz-adv-x="1472" d="M25 0l647 1430h125l650 -1430h-125l-210 480h-608l31 90h537l-344 778l-591 -1348h-112zM514 1649v110h115v-110h-115zM834 1649v110h115v-110h-115z" />
<glyph unicode="&#xc5;" horiz-adv-x="1472" d="M25 0l647 1430h125l650 -1430h-125l-210 480h-608l31 90h537l-344 778l-591 -1348h-112zM504 1576q0 210 228 210q224 0 224 -210q0 -209 -224 -209q-228 0 -228 209zM584 1578q0 -147 148 -147q144 0 144 147q0 144 -144 144q-148 0 -148 -144z" />
<glyph unicode="&#xc6;" horiz-adv-x="1875" d="M25 0l607 1430h1098v-90h-918l240 -570h643v-90h-604l256 -590h403v-90h-498l-557 1353l-303 -783h511l38 -90h-600l-194 -480h-122z" />
<glyph unicode="&#xc7;" horiz-adv-x="1385" d="M100 735q0 705 750 705q205 0 400 -60v-90q-195 60 -380 60q-665 0 -665 -615q0 -655 665 -655q185 0 380 60v-90q-195 -60 -400 -60q-750 0 -750 745zM583 -284q108 -60 216 -60q148 0 148 95q0 94 -123 94h-153l131 230h95l-81 -152q224 0 224 -172q0 -173 -241 -173 q-108 0 -216 50v88z" />
<glyph unicode="&#xc8;" horiz-adv-x="1228" d="M150 0h953v90h-848v590h800v90h-800v570h834v90h-939v-1430zM436 1718v90l400 -150v-90z" />
<glyph unicode="&#xc9;" horiz-adv-x="1228" d="M150 0h953v90h-848v590h800v90h-800v570h834v90h-939v-1430zM436 1568v90l400 150v-90z" />
<glyph unicode="&#xca;" horiz-adv-x="1228" d="M150 0h953v90h-848v590h800v90h-800v570h834v90h-939v-1430zM379 1574l195 260h110l195 -260h-100l-152 194l-148 -194h-100z" />
<glyph unicode="&#xcb;" horiz-adv-x="1228" d="M150 0h953v90h-848v590h800v90h-800v570h834v90h-939v-1430zM403 1649v110h115v-110h-115zM723 1649v110h115v-110h-115z" />
<glyph unicode="&#xcc;" d="M0 1708v100l405 -150v-100zM150 0v1430h105v-1430h-105z" />
<glyph unicode="&#xcd;" d="M0 1568v90l405 150v-90zM150 0v1430h105v-1430h-105z" />
<glyph unicode="&#xce;" d="M-50 1574l195 260h110l195 -260h-100l-152 194l-148 -194h-100zM150 0v1430h105v-1430h-105z" />
<glyph unicode="&#xcf;" d="M-15 1649v110h115v-110h-115zM150 0v1430h105v-1430h-105zM305 1649v110h115v-110h-115z" />
<glyph unicode="&#xd0;" horiz-adv-x="663" />
<glyph unicode="&#xd1;" horiz-adv-x="1485" d="M150 0v1430h135l955 -1242v1242h95v-1430h-85l-1005 1312v-1312h-95zM515 1649v90q60 46 130 46q52 0 110 -26t114 -26q75 0 146 46v-90q-60 -46 -130 -46q-52 0 -110 26t-114 26q-75 0 -146 -46z" />
<glyph unicode="&#xd2;" horiz-adv-x="1625" d="M100 713q0 727 718 727q707 0 707 -727q0 -723 -707 -723q-718 0 -718 723zM215 719q0 -639 603 -639q592 0 592 639q0 631 -592 631q-603 0 -603 -631zM590 1718v90l400 -150v-90z" />
<glyph unicode="&#xd3;" horiz-adv-x="1625" d="M100 713q0 727 718 727q707 0 707 -727q0 -723 -707 -723q-718 0 -718 723zM215 719q0 -639 603 -639q592 0 592 639q0 631 -592 631q-603 0 -603 -631zM590 1568v90l400 150v-90z" />
<glyph unicode="&#xd4;" horiz-adv-x="1625" d="M100 713q0 727 718 727q707 0 707 -727q0 -723 -707 -723q-718 0 -718 723zM215 719q0 -639 603 -639q592 0 592 639q0 631 -592 631q-603 0 -603 -631zM558 1574l195 260h110l195 -260h-100l-152 194l-148 -194h-100z" />
<glyph unicode="&#xd5;" horiz-adv-x="1625" d="M100 713q0 727 718 727q707 0 707 -727q0 -723 -707 -723q-718 0 -718 723zM215 719q0 -639 603 -639q592 0 592 639q0 631 -592 631q-603 0 -603 -631zM563 1649v90q60 46 130 46q52 0 110 -26t114 -26q75 0 146 46v-90q-60 -46 -130 -46q-52 0 -110 26t-114 26 q-75 0 -146 -46z" />
<glyph unicode="&#xd6;" horiz-adv-x="1625" d="M100 713q0 727 718 727q707 0 707 -727q0 -723 -707 -723q-718 0 -718 723zM215 719q0 -639 603 -639q592 0 592 639q0 631 -592 631q-603 0 -603 -631zM599 1649v110h115v-110h-115zM919 1649v110h115v-110h-115z" />
<glyph unicode="&#xd7;" horiz-adv-x="636" />
<glyph unicode="&#xd8;" horiz-adv-x="1625" d="M100 713q0 727 718 727q707 0 707 -727q0 -723 -707 -723q-718 0 -718 723zM198 0l1083 1430h138l-1084 -1430h-137zM215 719q0 -639 603 -639q592 0 592 639q0 631 -592 631q-603 0 -603 -631z" />
<glyph unicode="&#xd9;" horiz-adv-x="1450" d="M150 552v878h105v-878q0 -472 470 -472t470 472v878h105v-878q0 -562 -575 -562t-575 562zM548 1718v90l400 -150v-90z" />
<glyph unicode="&#xda;" horiz-adv-x="1450" d="M150 552v878h105v-878q0 -472 470 -472t470 472v878h105v-878q0 -562 -575 -562t-575 562zM548 1568v90l400 150v-90z" />
<glyph unicode="&#xdb;" horiz-adv-x="1450" d="M150 552v878h105v-878q0 -472 470 -472t470 472v878h105v-878q0 -562 -575 -562t-575 562zM480 1574l195 260h110l195 -260h-100l-152 194l-148 -194h-100z" />
<glyph unicode="&#xdc;" horiz-adv-x="1450" d="M150 552v878h105v-878q0 -472 470 -472t470 472v878h105v-878q0 -562 -575 -562t-575 562zM500 1649v110h115v-110h-115zM820 1649v110h115v-110h-115z" />
<glyph unicode="&#xdd;" horiz-adv-x="526" />
<glyph unicode="&#xde;" horiz-adv-x="576" />
<glyph unicode="&#xdf;" horiz-adv-x="1181" d="M150 0v959q0 468 464 468q400 0 400 -397v-55q-324 -103 -324 -258q0 -111 195.5 -182.5t195.5 -232.5q0 -302 -394 -302h-132v90h134q277 0 277 212q0 111 -190.5 177.5t-190.5 234.5q0 208 318 316q0 307 -296 307q-352 0 -352 -381v-956h-105z" />
<glyph unicode="&#xe0;" horiz-adv-x="1135" d="M100 317q0 303 446 303q157 0 334 -20v129q0 231 -363 231q-162 0 -332 -50v90q170 50 332 50q468 0 468 -336v-714h-64l-34 74q-207 -74 -392 -74q-395 0 -395 317zM205 320q0 -230 290 -230q192 0 385 82v338q-170 20 -334 20q-341 0 -341 -210zM358 1385v90l400 -150 v-90z" />
<glyph unicode="&#xe1;" horiz-adv-x="1135" d="M100 317q0 303 446 303q157 0 334 -20v129q0 231 -363 231q-162 0 -332 -50v90q170 50 332 50q468 0 468 -336v-714h-64l-34 74q-207 -74 -392 -74q-395 0 -395 317zM205 320q0 -230 290 -230q192 0 385 82v338q-170 20 -334 20q-341 0 -341 -210zM358 1235v90l400 150 v-90z" />
<glyph unicode="&#xe2;" horiz-adv-x="1135" d="M100 317q0 303 446 303q157 0 334 -20v129q0 231 -363 231q-162 0 -332 -50v90q170 50 332 50q468 0 468 -336v-714h-64l-34 74q-207 -74 -392 -74q-395 0 -395 317zM205 320q0 -230 290 -230q192 0 385 82v338q-170 20 -334 20q-341 0 -341 -210zM315 1280l195 260h110 l195 -260h-100l-152 194l-148 -194h-100z" />
<glyph unicode="&#xe3;" horiz-adv-x="1135" d="M100 317q0 303 446 303q157 0 334 -20v129q0 231 -363 231q-162 0 -332 -50v90q170 50 332 50q468 0 468 -336v-714h-64l-34 74q-207 -74 -392 -74q-395 0 -395 317zM205 320q0 -230 290 -230q192 0 385 82v338q-170 20 -334 20q-341 0 -341 -210zM303 1289v90 q60 46 130 46q52 0 110 -26t114 -26q75 0 146 46v-90q-60 -46 -130 -46q-52 0 -110 26t-114 26q-75 0 -146 -46z" />
<glyph unicode="&#xe4;" horiz-adv-x="1135" d="M100 317q0 303 446 303q157 0 334 -20v129q0 231 -363 231q-162 0 -332 -50v90q170 50 332 50q468 0 468 -336v-714h-64l-34 74q-207 -74 -392 -74q-395 0 -395 317zM205 320q0 -230 290 -230q192 0 385 82v338q-170 20 -334 20q-341 0 -341 -210zM351 1290v110h115v-110 h-115zM671 1290v110h115v-110h-115z" />
<glyph unicode="&#xe5;" horiz-adv-x="1135" d="M100 317q0 303 446 303q157 0 334 -20v129q0 231 -363 231q-162 0 -332 -50v90q170 50 332 50q468 0 468 -336v-714h-64l-34 74q-207 -74 -392 -74q-395 0 -395 317zM205 320q0 -230 290 -230q192 0 385 82v338q-170 20 -334 20q-341 0 -341 -210zM327 1539 q0 220 238 220q234 0 234 -220q0 -219 -234 -219q-238 0 -238 219zM417 1541q0 -147 148 -147q144 0 144 147q0 144 -144 144q-148 0 -148 -144z" />
<glyph unicode="&#xe6;" horiz-adv-x="1830" d="M100 329q0 291 427 291q154 0 316 -22v133q0 229 -322 229q-170 0 -332 -48v85q168 53 334 53q329 0 396 -180q117 180 392 180q394 0 394 -406q0 -66 -10 -142h-747q0 -412 440 -412q148 0 285 29v-89q-146 -30 -341 -30q-252 0 -413 177q-198 -177 -433 -177 q-386 0 -386 329zM205 330q0 -240 280 -240q202 0 355 172v248q-150 20 -314 20q-321 0 -321 -200zM946 596h638q3 33 3 63q0 301 -313 301q-310 0 -328 -364z" />
<glyph unicode="&#xe7;" horiz-adv-x="1025" d="M100 545q0 505 570 505q150 0 280 -30v-90q-130 30 -260 30q-475 0 -475 -415q0 -455 475 -455q130 0 260 30v-90q-130 -30 -280 -30q-570 0 -570 545zM398 -284q108 -60 216 -60q148 0 148 95q0 94 -123 94h-153l131 230h95l-81 -152q224 0 224 -172q0 -173 -241 -173 q-108 0 -216 50v88z" />
<glyph unicode="&#xe8;" horiz-adv-x="1126" d="M100 537q0 513 503 513q399 0 399 -409q0 -64 -10 -139h-787q0 -412 486 -412q139 0 278 30v-90q-139 -30 -338 -30q-531 0 -531 537zM205 596h688q2 24 2 46q0 320 -322 320q-350 0 -368 -366zM368 1385v90l400 -150v-90z" />
<glyph unicode="&#xe9;" horiz-adv-x="1126" d="M100 537q0 513 503 513q399 0 399 -409q0 -64 -10 -139h-787q0 -412 486 -412q139 0 278 30v-90q-139 -30 -338 -30q-531 0 -531 537zM205 596h688q2 24 2 46q0 320 -322 320q-350 0 -368 -366zM368 1235v90l400 150v-90z" />
<glyph unicode="&#xea;" horiz-adv-x="1126" d="M100 537q0 513 503 513q399 0 399 -409q0 -64 -10 -139h-787q0 -412 486 -412q139 0 278 30v-90q-139 -30 -338 -30q-531 0 -531 537zM205 596h688q2 24 2 46q0 320 -322 320q-350 0 -368 -366zM315 1280l195 260h110l195 -260h-100l-152 194l-148 -194h-100z" />
<glyph unicode="&#xeb;" horiz-adv-x="1126" d="M100 537q0 513 503 513q399 0 399 -409q0 -64 -10 -139h-787q0 -412 486 -412q139 0 278 30v-90q-139 -30 -338 -30q-531 0 -531 537zM205 596h688q2 24 2 46q0 320 -322 320q-350 0 -368 -366zM351 1290v110h115v-110h-115zM671 1290v110h115v-110h-115z" />
<glyph unicode="&#xec;" d="M0 1375v100l405 -150v-100zM150 0v1050h105v-1050h-105z" />
<glyph unicode="&#xed;" d="M0 1235v90l405 150v-90zM150 0v1050h105v-1050h-105z" />
<glyph unicode="&#xee;" d="M-50 1280l195 260h110l195 -260h-100l-152 194l-148 -194h-100zM150 0v1050h105v-1050h-105z" />
<glyph unicode="&#xef;" d="M-15 1290v110h115v-110h-115zM150 0v1050h105v-1050h-105zM305 1290v110h115v-110h-115z" />
<glyph unicode="&#xf0;" horiz-adv-x="483" />
<glyph unicode="&#xf1;" horiz-adv-x="1185" d="M150 0v1050h75l13 -134q261 134 454 134q343 0 343 -331v-719h-105v722q0 234 -263 234q-189 0 -412 -133v-823h-105zM353 1289v90q60 46 130 46q52 0 110 -26t114 -26q75 0 146 46v-90q-60 -46 -130 -46q-52 0 -110 26t-114 26q-75 0 -146 -46z" />
<glyph unicode="&#xf2;" horiz-adv-x="1200" d="M100 525q0 525 500 525t500 -525q0 -524 -500 -524q-498 0 -500 524zM205 529q0 -439 395 -439t395 439q0 431 -395 431t-395 -431zM384 1385v90l400 -150v-90z" />
<glyph unicode="&#xf3;" horiz-adv-x="1200" d="M100 525q0 525 500 525t500 -525q0 -524 -500 -524q-498 0 -500 524zM205 529q0 -439 395 -439t395 439q0 431 -395 431t-395 -431zM392 1235v90l400 150v-90z" />
<glyph unicode="&#xf4;" horiz-adv-x="1200" d="M100 525q0 525 500 525t500 -525q0 -524 -500 -524q-498 0 -500 524zM205 529q0 -439 395 -439t395 439q0 431 -395 431t-395 -431zM335 1280l195 260h110l195 -260h-100l-152 194l-148 -194h-100z" />
<glyph unicode="&#xf5;" horiz-adv-x="1200" d="M100 525q0 525 500 525t500 -525q0 -524 -500 -524q-498 0 -500 524zM205 529q0 -439 395 -439t395 439q0 431 -395 431t-395 -431zM346 1289v90q60 46 130 46q52 0 110 -26t114 -26q75 0 146 46v-90q-60 -46 -130 -46q-52 0 -110 26t-114 26q-75 0 -146 -46z" />
<glyph unicode="&#xf6;" horiz-adv-x="1200" d="M100 525q0 525 500 525t500 -525q0 -524 -500 -524q-498 0 -500 524zM205 529q0 -439 395 -439t395 439q0 431 -395 431t-395 -431zM381 1290v110h115v-110h-115zM701 1290v110h115v-110h-115z" />
<glyph unicode="&#xf7;" horiz-adv-x="985" d="M100 480h785v90h-785v-90zM420 150v130h145v-130h-145zM420 770v130h145v-130h-145z" />
<glyph unicode="&#xf8;" horiz-adv-x="1200" d="M100 525q0 525 500 525t500 -525q0 -524 -500 -524q-498 0 -500 524zM145 0l800 1050h138l-801 -1050h-137zM205 529q0 -439 395 -439t395 439q0 431 -395 431t-395 -431z" />
<glyph unicode="&#xf9;" horiz-adv-x="1185" d="M150 391v659h105v-662q0 -294 292 -294q159 0 383 133v823h105v-1050h-77l-12 134q-261 -134 -454 -134q-342 0 -342 391zM408 1385v90l400 -150v-90z" />
<glyph unicode="&#xfa;" horiz-adv-x="1185" d="M150 391v659h105v-662q0 -294 292 -294q159 0 383 133v823h105v-1050h-77l-12 134q-261 -134 -454 -134q-342 0 -342 391zM408 1235v90l400 150v-90z" />
<glyph unicode="&#xfb;" horiz-adv-x="1185" d="M150 391v659h105v-662q0 -294 292 -294q159 0 383 133v823h105v-1050h-77l-12 134q-261 -134 -454 -134q-342 0 -342 391zM355 1280l195 260h110l195 -260h-100l-152 194l-148 -194h-100z" />
<glyph unicode="&#xfc;" horiz-adv-x="1185" d="M150 391v659h105v-662q0 -294 292 -294q159 0 383 133v823h105v-1050h-77l-12 134q-261 -134 -454 -134q-342 0 -342 391zM378 1290v110h115v-110h-115zM698 1290v110h115v-110h-115z" />
<glyph unicode="&#xfd;" horiz-adv-x="393" />
<glyph unicode="&#xfe;" horiz-adv-x="348" />
<glyph unicode="&#xff;" horiz-adv-x="393" />
<glyph unicode="&#x152;" horiz-adv-x="2215" d="M100 713q0 717 718 717h1257v-90h-855q275 -137 305 -570h515v-90h-515q-30 -447 -317 -590h882v-90h-1272q-718 0 -718 713zM215 719q0 -629 603 -629q592 0 592 629q0 621 -592 621q-603 0 -603 -621z" />
<glyph unicode="&#x153;" horiz-adv-x="1944" d="M100 522q0 528 504 528q284 0 405 -219q98 219 407 219q403 0 403 -392q0 -71 -13 -156h-743q0 -412 442 -412q147 0 279 38v-96q-137 -32 -333 -32q-312 0 -441 226q-115 -226 -406 -226q-504 0 -504 522zM205 529q0 -439 395 -439q355 0 355 439q0 431 -355 431 q-395 0 -395 -431zM1060 596h638q3 33 3 63q0 303 -313 303q-310 0 -328 -366z" />
<glyph unicode="&#x178;" horiz-adv-x="526" />
<glyph unicode="&#x2c6;" horiz-adv-x="550" d="M25 1280l195 260h110l195 -260h-100l-152 194l-148 -194h-100z" />
<glyph unicode="&#x2dc;" horiz-adv-x="700" d="M100 460v90q60 46 130 46q52 0 110 -26t114 -26q75 0 146 46v-90q-60 -46 -130 -46q-52 0 -110 26t-114 26q-75 0 -146 -46z" />
<glyph unicode="&#x2013;" horiz-adv-x="684" />
<glyph unicode="&#x2014;" horiz-adv-x="894" />
<glyph unicode="&#x2018;" horiz-adv-x="475" d="M100 1430h125l150 -435h-125z" />
<glyph unicode="&#x2019;" horiz-adv-x="475" d="M100 995l150 435h125l-150 -435h-125z" />
<glyph unicode="&#x201a;" horiz-adv-x="234" />
<glyph unicode="&#x201c;" horiz-adv-x="785" d="M100 995l150 435h125l-150 -435h-125zM410 995l150 435h125l-150 -435h-125z" />
<glyph unicode="&#x201d;" horiz-adv-x="905" d="M100 1430h125l150 -435h-125zM410 1430h125l150 -435h-125z" />
<glyph unicode="&#x201e;" horiz-adv-x="785" d="M100 -250l150 435h125l-150 -435h-125zM410 -250l150 435h125l-150 -435h-125z" />
<glyph unicode="&#x2022;" horiz-adv-x="630" d="M100 725q0 215 215 215t215 -215t-215 -215t-215 215z" />
<glyph unicode="&#x2026;" horiz-adv-x="792" />
<glyph unicode="&#x2039;" horiz-adv-x="530" d="M100 525l258 375h122l-258 -375l258 -375h-122z" />
<glyph unicode="&#x203a;" horiz-adv-x="530" d="M50 150l258 375l-258 375h122l258 -375l-258 -375h-122z" />
<glyph unicode="&#x20ac;" horiz-adv-x="1385" d="M100 735q0 705 750 705q215 0 400 -60v-100q-185 70 -380 70q-568 0 -645 -438h833v-90h-843v-170h843v-90h-833q77 -482 645 -482q195 0 380 70v-100q-185 -60 -400 -60q-750 0 -750 745z" />
<glyph unicode="&#x2122;" horiz-adv-x="1606" d="M150 1359v71h511v-71h-212v-602h-87v602h-212zM750 757v673h110l248 -561l242 561h106v-673h-78v543l-239 -543h-69l-243 543v-543h-77z" />
<glyph unicode="&#xe000;" horiz-adv-x="1050" d="M0 1050h1050v-1050h-1050v1050z" />
<glyph unicode="&#xfb01;" horiz-adv-x="1126" d="M150 -5v1106q0 381 392 381q129 0 234 -40v-90q-99 40 -235 40q-286 0 -286 -233v-109h395v-90h-395v-961zM871 0v1050h105v-1050h-105zM871 1330v100h105v-100h-105z" />
<glyph unicode="&#xfb02;" horiz-adv-x="1126" d="M150 -5v1106q0 381 392 381q129 0 234 -40v-90q-99 40 -235 40q-286 0 -286 -233v-109h395v-90h-395v-961zM871 0v1430h105v-1430h-105z" />
<glyph unicode="&#xfb03;" horiz-adv-x="1847" d="M150 -5v1106q0 381 392 381q129 0 234 -40v-90q-99 40 -235 40q-286 0 -286 -233v-109h395v-90h-395v-961zM871 -5v1106q0 381 392 381q129 0 234 -40v-90q-99 40 -235 40q-286 0 -286 -233v-109h395v-90h-395v-961zM1592 0v1050h105v-1050h-105zM1592 1330v100h105v-100 h-105z" />
<glyph unicode="&#xfb04;" horiz-adv-x="1847" d="M150 -5v1106q0 381 392 381q129 0 234 -40v-90q-99 40 -235 40q-286 0 -286 -233v-109h395v-90h-395v-961zM871 -5v1106q0 381 392 381q129 0 234 -40v-90q-99 40 -235 40q-286 0 -286 -233v-109h395v-90h-395v-961zM1592 0v1430h105v-1430h-105z" />
</font>
</defs>
</svg>
